<?xml version="1.0" standalone="no"?>
<!DOCTYPE svg PUBLIC "-//W3C//DTD SVG 20010904//EN"
 "http://www.w3.org/TR/2001/REC-SVG-20010904/DTD/svg10.dtd">
<svg version="1.0" xmlns="http://www.w3.org/2000/svg"
 width="1111.000000pt" height="370.000000pt" viewBox="0 0 1111.000000 370.000000"
 preserveAspectRatio="xMidYMid meet">
<metadata>
Created by potrace 1.16, written by Peter Selinger 2001-2019
</metadata>
<g transform="translate(0.000000,370.000000) scale(0.100000,-0.100000)"
fill="#000000" stroke="none">
<path d="M10875 3570 l-220 -98 -3 -516 c-1 -284 -5 -516 -8 -516 -3 0 -43 11
-88 25 -159 48 -241 60 -411 59 -281 0 -483 -63 -682 -213 -292 -220 -443
-545 -443 -955 0 -659 365 -1108 955 -1176 50 -5 320 -10 613 -10 l522 0 0
1750 c0 963 -3 1750 -7 1749 -5 -1 -107 -45 -228 -99z m-478 -1465 c75 -15
158 -43 216 -71 l37 -18 0 -724 0 -724 -307 5 c-170 2 -337 10 -373 16 -100
17 -202 72 -280 151 -80 80 -129 164 -166 285 -26 84 -28 102 -28 280 0 221
14 289 88 440 90 183 237 302 438 355 91 24 277 26 375 5z"/>
<path d="M910 2505 c-348 -59 -623 -267 -781 -590 -148 -303 -167 -761 -45
-1086 157 -421 528 -671 1029 -695 202 -10 392 15 625 83 l122 36 0 233 0 233
-71 -29 c-224 -93 -379 -124 -579 -117 -165 6 -227 20 -345 77 -186 90 -311
246 -366 455 -30 116 -31 317 -1 439 91 369 414 590 783 536 145 -21 324 -89
477 -180 l52 -32 0 250 0 250 -102 40 c-227 90 -340 112 -567 111 -86 -1 -190
-7 -231 -14z"/>
<path d="M3271 2500 c-85 -31 -157 -78 -248 -164 -83 -78 -205 -230 -260 -323
l-28 -48 -3 258 -2 257 -230 0 -230 0 0 -1155 0 -1155 229 0 229 0 5 663 c4
722 4 721 65 865 112 266 342 421 553 372 94 -22 205 -84 304 -170 26 -22 50
-40 55 -40 5 0 63 90 129 200 l121 201 -37 32 c-114 101 -231 171 -347 206
-91 28 -229 28 -305 1z"/>
<path d="M5000 2465 c-388 -61 -729 -314 -891 -661 -109 -231 -134 -557 -64
-824 70 -267 261 -518 509 -671 136 -84 321 -148 471 -164 l65 -7 0 219 0 220
-57 13 c-142 31 -267 103 -371 215 -126 135 -184 292 -184 500 -1 151 19 240
80 365 38 79 60 109 131 181 70 69 103 94 177 131 49 25 120 51 157 58 l67 14
0 213 c0 117 -1 213 -2 212 -2 -1 -41 -7 -88 -14z"/>
<path d="M6753 1673 c3 -865 4 -885 56 -1054 67 -214 260 -390 507 -461 66
-19 102 -22 214 -22 115 1 148 5 223 28 153 46 293 125 404 230 l63 58 0 -141
0 -141 235 0 235 0 0 1155 0 1155 -235 0 -235 0 0 -828 0 -828 -72 -79 c-84
-91 -190 -164 -286 -197 -97 -33 -287 -33 -384 0 -92 32 -152 87 -195 178 -64
141 -65 156 -70 997 l-4 757 -230 0 -230 0 4 -807z"/>
<path d="M5420 2255 l0 -214 41 -11 c155 -42 312 -157 409 -301 90 -132 125
-269 117 -454 -6 -137 -23 -210 -73 -311 -86 -175 -261 -319 -441 -365 l-53
-13 0 -222 0 -222 78 15 c397 73 739 337 878 677 70 171 78 218 78 456 1 238
-9 302 -74 466 -115 288 -360 527 -664 645 -79 30 -230 68 -273 69 l-23 0 0
-215z"/>
</g>
</svg>
