<svg width="832" height="92" viewBox="0 0 832 92" fill="none" xmlns="http://www.w3.org/2000/svg">
<g filter="url(#filter0_d)">
<rect x="16" y="12" width="800" height="60" rx="30" fill="#F4F4F4"/>
</g>
<g filter="url(#filter1_d)">
<g filter="url(#filter2_d)">
<path d="M46 62C57.0457 62 66 53.0457 66 42C66 30.9543 57.0457 22 46 22C34.9543 22 26 30.9543 26 42C26 53.0457 34.9543 62 46 62Z" fill="url(#paint0_radial)"/>
</g>
<g filter="url(#filter3_d)">
<path fill-rule="evenodd" clip-rule="evenodd" d="M51.5147 30.75C53.1391 30.75 54.4559 32.0668 54.4559 33.6912C54.4559 35.1481 53.3965 36.3576 52.0061 36.5915V39.6144C53.3965 39.8482 54.4559 41.0578 54.4559 42.5147C54.4559 44.1391 53.1391 45.4559 51.5147 45.4559C50.0578 45.4559 48.8482 44.3965 48.6144 43.0061H45.5915C45.3845 44.2368 44.4132 45.208 43.1825 45.415V48.4379C44.573 48.6718 45.6324 49.8813 45.6324 51.3382C45.6324 52.9626 44.3155 54.2794 42.6912 54.2794C41.0668 54.2794 39.75 52.9626 39.75 51.3382C39.75 49.8813 40.8093 48.6718 42.1998 48.4379V45.415C40.8093 45.1812 39.75 43.9717 39.75 42.5147C39.75 40.8903 41.0668 39.5735 42.6912 39.5735C44.1481 39.5735 45.3576 40.6329 45.5915 42.0233H48.6144C48.8214 40.7927 49.7927 39.8214 51.0233 39.6144V36.5915C49.7927 36.3845 48.8214 35.4132 48.6144 34.1825H45.5915C45.3576 35.573 44.1481 36.6324 42.6912 36.6324C41.0668 36.6324 39.75 35.3155 39.75 33.6912C39.75 32.0668 41.0668 30.75 42.6912 30.75C44.1481 30.75 45.3576 31.8093 45.5915 33.1998H48.6144C48.8482 31.8093 50.0578 30.75 51.5147 30.75Z" fill="white"/>
</g>
</g>
<path d="M81.208 51H85.12V36.864H89.752V33.84H76.576V36.864H81.208V51ZM93.877 51.264C95.941 51.264 97.213 50.304 97.861 49.032V51H101.317V38.448H97.861V45.816C97.861 47.664 96.709 48.576 95.245 48.576C93.757 48.576 93.061 47.76 93.061 46.056V38.448H89.605V46.536C89.605 49.824 91.429 51.264 93.877 51.264ZM103.436 51H106.916V44.712C106.916 42.312 108.404 41.472 110.972 41.496V38.256C108.932 38.28 107.708 39.168 106.916 40.848V38.448H103.436V51ZM112.297 51H115.777V43.752C115.777 41.904 116.905 40.992 118.393 40.992C119.929 40.992 120.601 41.808 120.601 43.512V51H124.081V43.008C124.081 39.648 122.329 38.16 119.857 38.16C117.769 38.16 116.401 39.192 115.777 40.44V38.448H112.297V51ZM133.847 51.264C135.815 51.264 136.919 50.496 137.639 49.488V51H141.023V42.816C141.023 39.408 138.839 38.16 135.767 38.16C132.695 38.16 130.343 39.48 130.127 42.456H133.415C133.559 41.376 134.183 40.68 135.551 40.68C137.135 40.68 137.591 41.496 137.591 42.984V43.488H136.175C132.335 43.488 129.647 44.592 129.647 47.52C129.647 50.16 131.567 51.264 133.847 51.264ZM134.879 48.84C133.607 48.84 133.055 48.24 133.055 47.328C133.055 45.984 134.231 45.552 136.247 45.552H137.591V46.608C137.591 48 136.415 48.84 134.879 48.84ZM143.049 51H146.529V43.752C146.529 41.904 147.657 40.992 149.145 40.992C150.681 40.992 151.353 41.808 151.353 43.512V51H154.833V43.008C154.833 39.648 153.081 38.16 150.609 38.16C148.521 38.16 147.153 39.192 146.529 40.44V38.448H143.049V51ZM158.087 55.272H161.447L168.239 38.448H164.903L162.095 45.984L159.047 38.448H155.303L160.295 49.728L158.087 55.272ZM178.081 51.264C181.393 51.264 183.361 49.848 183.361 47.136C183.361 44.448 181.633 43.656 178.489 43.2C176.665 42.936 176.065 42.624 176.065 41.832C176.065 41.064 176.713 40.536 177.841 40.536C179.041 40.536 179.617 41.016 179.809 42.048H183.001C182.689 39.168 180.601 38.16 177.817 38.16C175.249 38.16 172.849 39.456 172.849 42.072C172.849 44.52 174.145 45.48 177.481 45.984C179.281 46.248 180.025 46.608 180.025 47.472C180.025 48.336 179.401 48.84 178.057 48.84C176.545 48.84 175.993 48.192 175.849 47.064H172.609C172.729 49.776 174.697 51.264 178.081 51.264ZM184.608 55.272H188.088V49.08C188.736 50.304 190.152 51.264 192.096 51.264C195.216 51.264 197.568 48.936 197.568 44.784V44.592C197.568 40.44 195.168 38.16 192.096 38.16C190.248 38.16 188.784 39.216 188.088 40.416V38.448H184.608V55.272ZM191.064 48.552C189.168 48.552 187.968 47.328 187.968 44.808V44.616C187.968 42.096 189.216 40.824 191.04 40.824C192.792 40.824 194.04 42.072 194.04 44.616V44.808C194.04 47.256 192.984 48.552 191.064 48.552ZM198.929 51H202.409V44.712C202.409 42.312 203.897 41.472 206.465 41.496V38.256C204.425 38.28 203.201 39.168 202.409 40.848V38.448H198.929V51ZM213.339 51.264C216.771 51.264 218.931 49.752 219.339 47.04H216.051C215.835 48.096 215.043 48.792 213.435 48.792C211.539 48.792 210.411 47.592 210.315 45.504H219.363V44.544C219.363 40.056 216.483 38.16 213.243 38.16C209.595 38.16 206.787 40.728 206.787 44.688V44.88C206.787 48.888 209.547 51.264 213.339 51.264ZM210.363 43.368C210.627 41.592 211.683 40.56 213.243 40.56C214.899 40.56 215.859 41.472 215.979 43.368H210.363ZM224.182 51.264C226.15 51.264 227.254 50.496 227.974 49.488V51H231.358V42.816C231.358 39.408 229.174 38.16 226.102 38.16C223.03 38.16 220.678 39.48 220.462 42.456H223.75C223.894 41.376 224.518 40.68 225.886 40.68C227.47 40.68 227.926 41.496 227.926 42.984V43.488H226.51C222.67 43.488 219.982 44.592 219.982 47.52C219.982 50.16 221.902 51.264 224.182 51.264ZM225.214 48.84C223.942 48.84 223.39 48.24 223.39 47.328C223.39 45.984 224.566 45.552 226.582 45.552H227.926V46.608C227.926 48 226.75 48.84 225.214 48.84ZM238.089 51.264C239.937 51.264 241.473 50.184 242.121 48.912V51H245.577V32.76H242.121V40.32C241.425 39.048 240.177 38.16 238.161 38.16C235.017 38.16 232.641 40.584 232.641 44.712V44.904C232.641 49.08 235.041 51.264 238.089 51.264ZM239.121 48.552C237.393 48.552 236.193 47.328 236.193 44.832V44.64C236.193 42.144 237.273 40.824 239.217 40.824C241.113 40.824 242.217 42.096 242.217 44.592V44.784C242.217 47.328 240.945 48.552 239.121 48.552ZM252.266 51.264C255.578 51.264 257.546 49.848 257.546 47.136C257.546 44.448 255.818 43.656 252.674 43.2C250.85 42.936 250.25 42.624 250.25 41.832C250.25 41.064 250.898 40.536 252.026 40.536C253.226 40.536 253.802 41.016 253.994 42.048H257.186C256.874 39.168 254.786 38.16 252.002 38.16C249.434 38.16 247.034 39.456 247.034 42.072C247.034 44.52 248.33 45.48 251.666 45.984C253.466 46.248 254.21 46.608 254.21 47.472C254.21 48.336 253.586 48.84 252.242 48.84C250.73 48.84 250.178 48.192 250.034 47.064H246.794C246.914 49.776 248.882 51.264 252.266 51.264ZM258.793 51H262.273V43.752C262.273 41.904 263.401 40.992 264.889 40.992C266.425 40.992 267.097 41.808 267.097 43.512V51H270.577V43.008C270.577 39.648 268.825 38.16 266.353 38.16C264.265 38.16 262.897 39.192 262.273 40.44V32.76H258.793V51ZM278.383 51.264C281.815 51.264 283.975 49.752 284.383 47.04H281.095C280.879 48.096 280.087 48.792 278.479 48.792C276.583 48.792 275.455 47.592 275.359 45.504H284.407V44.544C284.407 40.056 281.527 38.16 278.287 38.16C274.639 38.16 271.831 40.728 271.831 44.688V44.88C271.831 48.888 274.591 51.264 278.383 51.264ZM275.407 43.368C275.671 41.592 276.727 40.56 278.287 40.56C279.943 40.56 280.903 41.472 281.023 43.368H275.407ZM291.509 51.264C294.941 51.264 297.101 49.752 297.509 47.04H294.221C294.005 48.096 293.213 48.792 291.605 48.792C289.709 48.792 288.581 47.592 288.485 45.504H297.533V44.544C297.533 40.056 294.653 38.16 291.413 38.16C287.765 38.16 284.957 40.728 284.957 44.688V44.88C284.957 48.888 287.717 51.264 291.509 51.264ZM288.533 43.368C288.797 41.592 289.853 40.56 291.413 40.56C293.069 40.56 294.029 41.472 294.149 43.368H288.533ZM303.435 51.24C304.371 51.24 305.067 51.072 305.547 50.904V48.216C305.139 48.384 304.755 48.456 304.227 48.456C303.339 48.456 302.835 47.976 302.835 46.968V40.92H305.475V38.448H302.835V35.736H299.379V38.448H297.771V40.92H299.379V47.28C299.379 49.896 300.795 51.24 303.435 51.24ZM311.394 51H314.85V38.448H311.394V51ZM313.098 36.744C314.226 36.744 315.09 35.928 315.09 34.848C315.09 33.768 314.226 32.952 313.098 32.952C311.994 32.952 311.13 33.768 311.13 34.848C311.13 35.928 311.994 36.744 313.098 36.744ZM317.088 51H320.568V43.752C320.568 41.904 321.696 40.992 323.184 40.992C324.72 40.992 325.392 41.808 325.392 43.512V51H328.872V43.008C328.872 39.648 327.12 38.16 324.648 38.16C322.56 38.16 321.192 39.192 320.568 40.44V38.448H317.088V51ZM335.477 51.24C336.413 51.24 337.109 51.072 337.589 50.904V48.216C337.181 48.384 336.797 48.456 336.269 48.456C335.381 48.456 334.877 47.976 334.877 46.968V40.92H337.517V38.448H334.877V35.736H331.421V38.448H329.813V40.92H331.421V47.28C331.421 49.896 332.837 51.24 335.477 51.24ZM344.836 48.624C342.868 48.624 341.764 47.184 341.764 44.784V44.592C341.764 42.192 342.916 40.8 344.836 40.8C346.78 40.8 347.908 42.24 347.908 44.64V44.808C347.908 47.184 346.78 48.624 344.836 48.624ZM344.812 51.264C348.58 51.264 351.436 48.744 351.436 44.784V44.592C351.436 40.68 348.604 38.16 344.836 38.16C341.068 38.16 338.212 40.728 338.212 44.664V44.856C338.212 48.768 341.068 51.264 344.812 51.264ZM360.554 51.264C362.522 51.264 363.626 50.496 364.346 49.488V51H367.73V42.816C367.73 39.408 365.546 38.16 362.474 38.16C359.402 38.16 357.05 39.48 356.834 42.456H360.122C360.266 41.376 360.89 40.68 362.258 40.68C363.842 40.68 364.298 41.496 364.298 42.984V43.488H362.882C359.042 43.488 356.354 44.592 356.354 47.52C356.354 50.16 358.274 51.264 360.554 51.264ZM361.586 48.84C360.314 48.84 359.762 48.24 359.762 47.328C359.762 45.984 360.938 45.552 362.954 45.552H364.298V46.608C364.298 48 363.122 48.84 361.586 48.84ZM369.757 51H373.237V43.752C373.237 41.904 374.365 40.992 375.853 40.992C377.389 40.992 378.061 41.808 378.061 43.512V51H381.541V43.008C381.541 39.648 379.789 38.16 377.317 38.16C375.229 38.16 373.861 39.192 373.237 40.44V38.448H369.757V51ZM388.019 51H391.475V38.448H388.019V51ZM389.723 36.744C390.851 36.744 391.715 35.928 391.715 34.848C391.715 33.768 390.851 32.952 389.723 32.952C388.619 32.952 387.755 33.768 387.755 34.848C387.755 35.928 388.619 36.744 389.723 36.744ZM393.713 51H397.193V43.752C397.193 41.904 398.321 40.992 399.809 40.992C401.345 40.992 402.017 41.808 402.017 43.512V51H405.497V43.008C405.497 39.648 403.745 38.16 401.273 38.16C399.185 38.16 397.817 39.192 397.193 40.44V38.448H393.713V51ZM412.102 51.24C413.038 51.24 413.734 51.072 414.214 50.904V48.216C413.806 48.384 413.422 48.456 412.894 48.456C412.006 48.456 411.502 47.976 411.502 46.968V40.92H414.142V38.448H411.502V35.736H408.046V38.448H406.438V40.92H408.046V47.28C408.046 49.896 409.462 51.24 412.102 51.24ZM421.389 51.264C424.821 51.264 426.981 49.752 427.389 47.04H424.101C423.885 48.096 423.093 48.792 421.485 48.792C419.589 48.792 418.461 47.592 418.365 45.504H427.413V44.544C427.413 40.056 424.533 38.16 421.293 38.16C417.645 38.16 414.837 40.728 414.837 44.688V44.88C414.837 48.888 417.597 51.264 421.389 51.264ZM418.413 43.368C418.677 41.592 419.733 40.56 421.293 40.56C422.949 40.56 423.909 41.472 424.029 43.368H418.413ZM428.731 51H432.211V44.712C432.211 42.312 433.699 41.472 436.267 41.496V38.256C434.227 38.28 433.003 39.168 432.211 40.848V38.448H428.731V51ZM440.741 51.264C442.709 51.264 443.813 50.496 444.533 49.488V51H447.917V42.816C447.917 39.408 445.733 38.16 442.661 38.16C439.589 38.16 437.237 39.48 437.021 42.456H440.309C440.453 41.376 441.077 40.68 442.445 40.68C444.029 40.68 444.485 41.496 444.485 42.984V43.488H443.069C439.229 43.488 436.541 44.592 436.541 47.52C436.541 50.16 438.461 51.264 440.741 51.264ZM441.773 48.84C440.501 48.84 439.949 48.24 439.949 47.328C439.949 45.984 441.125 45.552 443.141 45.552H444.485V46.608C444.485 48 443.309 48.84 441.773 48.84ZM455.632 51.264C459.28 51.264 461.44 49.2 461.632 46.224H458.488C458.32 47.832 457.192 48.648 455.8 48.648C453.856 48.648 452.728 47.352 452.728 44.832V44.64C452.728 42.24 453.928 40.896 455.728 40.896C457.144 40.896 458.032 41.568 458.272 43.032H461.56C461.248 39.432 458.56 38.16 455.656 38.16C452.08 38.16 449.176 40.632 449.176 44.688V44.88C449.176 48.984 451.96 51.264 455.632 51.264ZM467.443 51.24C468.379 51.24 469.075 51.072 469.555 50.904V48.216C469.147 48.384 468.763 48.456 468.235 48.456C467.347 48.456 466.843 47.976 466.843 46.968V40.92H469.483V38.448H466.843V35.736H463.387V38.448H461.779V40.92H463.387V47.28C463.387 49.896 464.803 51.24 467.443 51.24ZM471.042 51H474.498V38.448H471.042V51ZM472.746 36.744C473.874 36.744 474.738 35.928 474.738 34.848C474.738 33.768 473.874 32.952 472.746 32.952C471.642 32.952 470.778 33.768 470.778 34.848C470.778 35.928 471.642 36.744 472.746 36.744ZM480.12 51H484.032L488.592 38.448H485.232L482.256 47.424L479.256 38.448H475.536L480.12 51ZM494.685 51.264C498.117 51.264 500.277 49.752 500.685 47.04H497.397C497.181 48.096 496.389 48.792 494.781 48.792C492.885 48.792 491.757 47.592 491.661 45.504H500.709V44.544C500.709 40.056 497.829 38.16 494.589 38.16C490.941 38.16 488.133 40.728 488.133 44.688V44.88C488.133 48.888 490.893 51.264 494.685 51.264ZM491.709 43.368C491.973 41.592 493.029 40.56 494.589 40.56C496.245 40.56 497.205 41.472 497.325 43.368H491.709ZM509.771 51.264C511.739 51.264 512.843 50.496 513.563 49.488V51H516.947V42.816C516.947 39.408 514.763 38.16 511.691 38.16C508.619 38.16 506.267 39.48 506.051 42.456H509.339C509.483 41.376 510.107 40.68 511.475 40.68C513.059 40.68 513.515 41.496 513.515 42.984V43.488H512.099C508.259 43.488 505.571 44.592 505.571 47.52C505.571 50.16 507.491 51.264 509.771 51.264ZM510.803 48.84C509.531 48.84 508.979 48.24 508.979 47.328C508.979 45.984 510.155 45.552 512.171 45.552H513.515V46.608C513.515 48 512.339 48.84 510.803 48.84ZM518.974 55.272H522.454V49.08C523.102 50.304 524.518 51.264 526.462 51.264C529.582 51.264 531.934 48.936 531.934 44.784V44.592C531.934 40.44 529.534 38.16 526.462 38.16C524.614 38.16 523.15 39.216 522.454 40.416V38.448H518.974V55.272ZM525.43 48.552C523.534 48.552 522.334 47.328 522.334 44.808V44.616C522.334 42.096 523.582 40.824 525.406 40.824C527.158 40.824 528.406 42.072 528.406 44.616V44.808C528.406 47.256 527.35 48.552 525.43 48.552ZM533.295 55.272H536.775V49.08C537.423 50.304 538.839 51.264 540.783 51.264C543.903 51.264 546.255 48.936 546.255 44.784V44.592C546.255 40.44 543.855 38.16 540.783 38.16C538.935 38.16 537.471 39.216 536.775 40.416V38.448H533.295V55.272ZM539.751 48.552C537.855 48.552 536.655 47.328 536.655 44.808V44.616C536.655 42.096 537.903 40.824 539.727 40.824C541.479 40.824 542.727 42.072 542.727 44.616V44.808C542.727 47.256 541.671 48.552 539.751 48.552ZM552.073 51H555.529V38.448H552.073V51ZM553.777 36.744C554.905 36.744 555.769 35.928 555.769 34.848C555.769 33.768 554.905 32.952 553.777 32.952C552.673 32.952 551.809 33.768 551.809 34.848C551.809 35.928 552.673 36.744 553.777 36.744ZM557.767 51H561.247V43.752C561.247 41.904 562.375 40.992 563.863 40.992C565.399 40.992 566.071 41.808 566.071 43.512V51H569.551V43.008C569.551 39.648 567.799 38.16 565.327 38.16C563.239 38.16 561.871 39.192 561.247 40.44V38.448H557.767V51ZM576.132 51.264C579.444 51.264 581.412 49.848 581.412 47.136C581.412 44.448 579.684 43.656 576.54 43.2C574.716 42.936 574.116 42.624 574.116 41.832C574.116 41.064 574.764 40.536 575.892 40.536C577.092 40.536 577.668 41.016 577.86 42.048H581.052C580.74 39.168 578.652 38.16 575.868 38.16C573.3 38.16 570.9 39.456 570.9 42.072C570.9 44.52 572.196 45.48 575.532 45.984C577.332 46.248 578.076 46.608 578.076 47.472C578.076 48.336 577.452 48.84 576.108 48.84C574.596 48.84 574.044 48.192 573.9 47.064H570.66C570.78 49.776 572.748 51.264 576.132 51.264ZM587.243 51.24C588.179 51.24 588.875 51.072 589.355 50.904V48.216C588.947 48.384 588.563 48.456 588.035 48.456C587.147 48.456 586.643 47.976 586.643 46.968V40.92H589.283V38.448H586.643V35.736H583.187V38.448H581.579V40.92H583.187V47.28C583.187 49.896 584.603 51.24 587.243 51.24ZM594.247 51.264C596.215 51.264 597.319 50.496 598.039 49.488V51H601.423V42.816C601.423 39.408 599.239 38.16 596.167 38.16C593.095 38.16 590.743 39.48 590.527 42.456H593.815C593.959 41.376 594.583 40.68 595.951 40.68C597.535 40.68 597.991 41.496 597.991 42.984V43.488H596.575C592.735 43.488 590.047 44.592 590.047 47.52C590.047 50.16 591.967 51.264 594.247 51.264ZM595.279 48.84C594.007 48.84 593.455 48.24 593.455 47.328C593.455 45.984 594.631 45.552 596.647 45.552H597.991V46.608C597.991 48 596.815 48.84 595.279 48.84ZM603.45 51H606.93V43.752C606.93 41.904 608.058 40.992 609.546 40.992C611.082 40.992 611.754 41.808 611.754 43.512V51H615.234V43.008C615.234 39.648 613.482 38.16 611.01 38.16C608.922 38.16 607.554 39.192 606.93 40.44V38.448H603.45V51ZM621.84 51.24C622.776 51.24 623.472 51.072 623.952 50.904V48.216C623.544 48.384 623.16 48.456 622.632 48.456C621.744 48.456 621.24 47.976 621.24 46.968V40.92H623.88V38.448H621.24V35.736H617.784V38.448H616.176V40.92H617.784V47.28C617.784 49.896 619.2 51.24 621.84 51.24ZM625.439 51H628.895V32.76H625.439V51ZM632.693 55.272H636.053L642.845 38.448H639.509L636.701 45.984L633.653 38.448H629.909L634.901 49.728L632.693 55.272ZM643.09 53.952L646.354 48.36L643.09 47.136L640.978 53.064L643.09 53.952ZM655.174 51H658.63L660.934 43.128L663.07 51H666.478L670.438 38.448H667.102L664.726 46.896L662.518 38.448H659.662L657.238 46.896L655.006 38.448H651.358L655.174 51ZM671.475 51H674.931V38.448H671.475V51ZM673.179 36.744C674.307 36.744 675.171 35.928 675.171 34.848C675.171 33.768 674.307 32.952 673.179 32.952C672.075 32.952 671.211 33.768 671.211 34.848C671.211 35.928 672.075 36.744 673.179 36.744ZM681.753 51.24C682.689 51.24 683.385 51.072 683.865 50.904V48.216C683.457 48.384 683.073 48.456 682.545 48.456C681.657 48.456 681.153 47.976 681.153 46.968V40.92H683.793V38.448H681.153V35.736H677.697V38.448H676.089V40.92H677.697V47.28C677.697 49.896 679.113 51.24 681.753 51.24ZM685.255 51H688.735V43.752C688.735 41.904 689.863 40.992 691.351 40.992C692.887 40.992 693.559 41.808 693.559 43.512V51H697.039V43.008C697.039 39.648 695.287 38.16 692.815 38.16C690.727 38.16 689.359 39.192 688.735 40.44V32.76H685.255V51ZM703.733 51H707.597V44.76H709.781C713.693 44.76 716.213 43.032 716.213 39.408V39.312C716.213 35.688 713.837 33.84 709.661 33.84H703.733V51ZM707.597 42.048V36.792H709.565C711.413 36.792 712.469 37.512 712.469 39.336V39.432C712.469 41.136 711.461 42.048 709.565 42.048H707.597ZM722.989 48.624C721.021 48.624 719.917 47.184 719.917 44.784V44.592C719.917 42.192 721.069 40.8 722.989 40.8C724.933 40.8 726.061 42.24 726.061 44.64V44.808C726.061 47.184 724.933 48.624 722.989 48.624ZM722.965 51.264C726.733 51.264 729.589 48.744 729.589 44.784V44.592C729.589 40.68 726.757 38.16 722.989 38.16C719.221 38.16 716.365 40.728 716.365 44.664V44.856C716.365 48.768 719.221 51.264 722.965 51.264ZM731.058 51H734.514V32.76H731.058V51ZM738.313 55.272H741.673L748.465 38.448H745.129L742.321 45.984L739.273 38.448H735.529L740.521 49.728L738.313 55.272ZM749.386 51H752.866V43.584C752.866 41.88 753.946 41.016 755.29 41.016C756.514 41.016 757.258 41.736 757.258 43.344V51H760.714V43.584C760.714 41.88 761.794 41.016 763.138 41.016C764.386 41.016 765.106 41.736 765.106 43.344V51H768.562V42.96C768.562 39.624 766.762 38.16 764.434 38.16C762.85 38.16 761.218 38.832 760.21 40.344C759.61 38.856 758.362 38.16 756.706 38.16C754.834 38.16 753.49 39.192 752.866 40.368V38.448H749.386V51ZM776.358 51.264C779.79 51.264 781.95 49.752 782.358 47.04H779.07C778.854 48.096 778.062 48.792 776.454 48.792C774.558 48.792 773.43 47.592 773.334 45.504H782.382V44.544C782.382 40.056 779.502 38.16 776.262 38.16C772.614 38.16 769.806 40.728 769.806 44.688V44.88C769.806 48.888 772.566 51.264 776.358 51.264ZM773.382 43.368C773.646 41.592 774.702 40.56 776.262 40.56C777.918 40.56 778.878 41.472 778.998 43.368H773.382ZM783.7 51H787.18V44.712C787.18 42.312 788.668 41.472 791.236 41.496V38.256C789.196 38.28 787.972 39.168 787.18 40.848V38.448H783.7V51Z" fill="#161616"/>
<defs>
<filter id="filter0_d" x="0" y="0" width="832" height="92" filterUnits="userSpaceOnUse" color-interpolation-filters="sRGB">
<feFlood flood-opacity="0" result="BackgroundImageFix"/>
<feColorMatrix in="SourceAlpha" type="matrix" values="0 0 0 0 0 0 0 0 0 0 0 0 0 0 0 0 0 0 127 0"/>
<feOffset dy="4"/>
<feGaussianBlur stdDeviation="8"/>
<feColorMatrix type="matrix" values="0 0 0 0 0 0 0 0 0 0 0 0 0 0 0 0 0 0 0.25 0"/>
<feBlend mode="normal" in2="BackgroundImageFix" result="effect1_dropShadow"/>
<feBlend mode="normal" in="SourceGraphic" in2="effect1_dropShadow" result="shape"/>
</filter>
<filter id="filter1_d" x="18" y="18" width="56" height="56" filterUnits="userSpaceOnUse" color-interpolation-filters="sRGB">
<feFlood flood-opacity="0" result="BackgroundImageFix"/>
<feColorMatrix in="SourceAlpha" type="matrix" values="0 0 0 0 0 0 0 0 0 0 0 0 0 0 0 0 0 0 127 0"/>
<feOffset dy="4"/>
<feGaussianBlur stdDeviation="4"/>
<feColorMatrix type="matrix" values="0 0 0 0 0 0 0 0 0 0 0 0 0 0 0 0 0 0 0.25 0"/>
<feBlend mode="normal" in2="BackgroundImageFix" result="effect1_dropShadow"/>
<feBlend mode="normal" in="SourceGraphic" in2="effect1_dropShadow" result="shape"/>
</filter>
<filter id="filter2_d" x="24.08" y="21.04" width="43.84" height="43.84" filterUnits="userSpaceOnUse" color-interpolation-filters="sRGB">
<feFlood flood-opacity="0" result="BackgroundImageFix"/>
<feColorMatrix in="SourceAlpha" type="matrix" values="0 0 0 0 0 0 0 0 0 0 0 0 0 0 0 0 0 0 127 0"/>
<feOffset dy="0.96"/>
<feGaussianBlur stdDeviation="0.96"/>
<feColorMatrix type="matrix" values="0 0 0 0 0 0 0 0 0 0 0 0 0 0 0 0 0 0 0.25 0"/>
<feBlend mode="normal" in2="BackgroundImageFix" result="effect1_dropShadow"/>
<feBlend mode="normal" in="SourceGraphic" in2="effect1_dropShadow" result="shape"/>
</filter>
<filter id="filter3_d" x="37.83" y="29.79" width="18.5459" height="27.3694" filterUnits="userSpaceOnUse" color-interpolation-filters="sRGB">
<feFlood flood-opacity="0" result="BackgroundImageFix"/>
<feColorMatrix in="SourceAlpha" type="matrix" values="0 0 0 0 0 0 0 0 0 0 0 0 0 0 0 0 0 0 127 0"/>
<feOffset dy="0.96"/>
<feGaussianBlur stdDeviation="0.96"/>
<feColorMatrix type="matrix" values="0 0 0 0 0 0 0 0 0 0 0 0 0 0 0 0 0 0 0.25 0"/>
<feBlend mode="normal" in2="BackgroundImageFix" result="effect1_dropShadow"/>
<feBlend mode="normal" in="SourceGraphic" in2="effect1_dropShadow" result="shape"/>
</filter>
<radialGradient id="paint0_radial" cx="0" cy="0" r="1" gradientUnits="userSpaceOnUse" gradientTransform="translate(26 44.5) rotate(-40.6013) scale(40.3355 71.9979)">
<stop offset="0.243575" stop-color="#2F80ED"/>
<stop offset="0.488371" stop-color="#2D9CDB"/>
<stop offset="1" stop-color="#56CCF2"/>
</radialGradient>
</defs>
</svg>
