<svg width="176" height="42" viewBox="0 0 176 42" fill="none" xmlns="http://www.w3.org/2000/svg"><path fill-rule="evenodd" clip-rule="evenodd" d="M13.152 6.521c-.844.428-1.646.927-2.4 1.487l-.15 22.244h2.389l.161-23.731zm3.89 23.731l.17-25.163a16.678 16.678 0 013.448-.358c9.173 0 16.609 7.436 16.609 16.61 0 3.279-.95 6.336-2.591 8.911H17.042zm-4.079 4.051h-2.39v.233c.745.57 1.54 1.08 2.378 1.52l.012-1.753zm4.03 3.24l.021-3.24h14.03A16.539 16.539 0 0120.66 37.95c-1.26 0-2.488-.14-3.668-.406zM6.55 30.108a16.532 16.532 0 01-2.5-8.768c0-3.3.962-6.374 2.621-8.959l-.12 17.727zM20.66 42c11.41 0 20.66-9.25 20.66-20.66S32.07.68 20.66.68 0 9.93 0 21.34 9.25 42 20.66 42z" fill="#2F3A4D"/><path d="M58.617 29.645V12.708h-4.532v16.937h4.532zm6.771-5.379h11.581c.092-.252.115-.55.115-1.053 0-4.486-3.25-6.775-7.828-6.775-5.081 0-8.171 2.61-8.171 6.867s3.136 6.866 8.514 6.866c2.884 0 5.219-.64 7.027-2.243l-2.289-2.403c-1.259.961-2.472 1.442-4.486 1.442-2.563 0-4.097-.778-4.463-2.701zm3.914-4.67c1.922 0 3.135.71 3.616 2.198l-7.416.046c.504-1.534 1.854-2.243 3.8-2.243zm25.853-2.631h-4.532v1.854c-1.19-1.557-3.067-2.312-5.241-2.312-4.051 0-6.706 2.449-6.706 6.523 0 4.051 2.655 6.5 6.706 6.5 2.082 0 4.05-.755 5.241-2.312v1.008c0 2.014-1.396 3.204-4.44 3.204-2.06 0-4.006-.55-5.081-1.213l-1.19 2.998c1.602.893 4.485 1.465 6.797 1.465 3.983 0 8.446-1.717 8.446-7.278V16.965zm-8.492 9.292c-2.38 0-3.662-1.259-3.662-3.227 0-1.991 1.282-3.227 3.662-3.227 1.603 0 2.93.595 3.983 2.037v2.38c-1.053 1.396-2.38 2.037-3.983 2.037zm18.543-9.796c-2.197 0-4.806.48-6.523 1.305l1.03 2.86c1.556-.777 3.044-.983 4.555-.983 2.769 0 4.188.915 4.188 2.838v.824c-.961-1.03-2.724-1.808-4.967-1.808-2.677 0-6.088 1.052-6.088 4.302 0 3.25 3.411 4.303 6.088 4.303 2.243 0 4.006-.778 4.967-1.785v.023c0 .435.183.916.435 1.305h4.578c-.39-.733-.55-1.488-.55-2.404v-4.715c0-3.913-2.884-6.065-7.713-6.065zm3.342 9.453c-.87 1.236-2.472 1.556-3.777 1.556-1.282 0-2.998-.32-2.998-1.67 0-1.35 1.716-1.671 2.998-1.671 1.305 0 2.907.32 3.777 1.533v.252zm12.049 3.731V12.708h-4.532v16.937h4.532zm12.951.457c3.983 0 6.729-2.609 6.729-6.797 0-4.212-2.746-6.82-6.729-6.82-2.311 0-4.097.915-5.218 2.334v-1.854h-4.509v17.257h4.509v-6.454c1.121 1.442 2.907 2.334 5.218 2.334zm-1.259-10.162c2.381 0 3.708 1.236 3.708 3.365 0 2.105-1.327 3.341-3.708 3.341-1.533 0-2.929-.526-3.936-1.808v-3.09c1.007-1.281 2.403-1.808 3.936-1.808zm17.307-3.479c-2.197 0-4.806.48-6.523 1.305l1.03 2.86c1.556-.777 3.044-.983 4.555-.983 2.769 0 4.188.915 4.188 2.838v.824c-.961-1.03-2.724-1.808-4.967-1.808-2.677 0-6.088 1.052-6.088 4.302 0 3.25 3.411 4.303 6.088 4.303 2.243 0 4.006-.778 4.967-1.785v.023c0 .435.183.916.435 1.305h4.577c-.389-.733-.549-1.488-.549-2.404v-4.715c0-3.913-2.884-6.065-7.713-6.065zm3.342 9.453c-.87 1.236-2.472 1.556-3.777 1.556-1.282 0-2.998-.32-2.998-1.67 0-1.35 1.716-1.671 2.998-1.671 1.305 0 2.907.32 3.777 1.533v.252zm13.335-9.407c-3.983 0-6.729 2.61-6.729 6.798 0 4.188 2.746 6.82 6.729 6.82 2.311 0 4.097-.915 5.218-2.334v1.854H176V12.708h-4.509v6.11c-1.121-1.418-2.907-2.311-5.218-2.311zm1.258 10.14c-2.38 0-3.707-1.214-3.707-3.342 0-2.106 1.327-3.342 3.707-3.342 1.534 0 2.953.504 3.937 1.808v3.067c-.984 1.305-2.403 1.808-3.937 1.808z" fill="#2F3A4D"/></svg>