<svg xmlns="http://www.w3.org/2000/svg" width="333" height="92" fill="none" viewBox="0 0 333 92"><g filter="url(#filter0_d)"><rect width="301" height="60" x="16" y="12" fill="#F4F4F4" rx="30"/></g><g filter="url(#filter1_d)"><g filter="url(#filter2_d)"><path fill="url(#paint0_radial)" d="M46 62C57.0457 62 66 53.0457 66 42C66 30.9543 57.0457 22 46 22C34.9543 22 26 30.9543 26 42C26 53.0457 34.9543 62 46 62Z"/></g><g filter="url(#filter3_d)"><path fill="#fff" fill-rule="evenodd" d="M51.5147 30.75C53.1391 30.75 54.4559 32.0668 54.4559 33.6912C54.4559 35.1481 53.3965 36.3576 52.0061 36.5915V39.6144C53.3965 39.8482 54.4559 41.0578 54.4559 42.5147C54.4559 44.1391 53.1391 45.4559 51.5147 45.4559C50.0578 45.4559 48.8482 44.3965 48.6144 43.0061H45.5915C45.3845 44.2368 44.4132 45.208 43.1825 45.415V48.4379C44.573 48.6718 45.6324 49.8813 45.6324 51.3382C45.6324 52.9626 44.3155 54.2794 42.6912 54.2794C41.0668 54.2794 39.75 52.9626 39.75 51.3382C39.75 49.8813 40.8093 48.6718 42.1998 48.4379V45.415C40.8093 45.1812 39.75 43.9717 39.75 42.5147C39.75 40.8903 41.0668 39.5735 42.6912 39.5735C44.1481 39.5735 45.3576 40.6329 45.5915 42.0233H48.6144C48.8214 40.7927 49.7927 39.8214 51.0233 39.6144V36.5915C49.7927 36.3845 48.8214 35.4132 48.6144 34.1825H45.5915C45.3576 35.573 44.1481 36.6324 42.6912 36.6324C41.0668 36.6324 39.75 35.3155 39.75 33.6912C39.75 32.0668 41.0668 30.75 42.6912 30.75C44.1481 30.75 45.3576 31.8093 45.5915 33.1998H48.6144C48.8482 31.8093 50.0578 30.75 51.5147 30.75Z" clip-rule="evenodd"/></g></g><path fill="#161616" d="M77.848 51H81.712V44.76H83.896C87.808 44.76 90.328 43.032 90.328 39.408V39.312C90.328 35.688 87.952 33.84 83.776 33.84H77.848V51ZM81.712 42.048V36.792H83.68C85.528 36.792 86.584 37.512 86.584 39.336V39.432C86.584 41.136 85.576 42.048 83.68 42.048H81.712ZM97.1039 48.624C95.1359 48.624 94.0319 47.184 94.0319 44.784V44.592C94.0319 42.192 95.1839 40.8 97.1039 40.8C99.0479 40.8 100.176 42.24 100.176 44.64V44.808C100.176 47.184 99.0479 48.624 97.1039 48.624ZM97.0799 51.264C100.848 51.264 103.704 48.744 103.704 44.784V44.592C103.704 40.68 100.872 38.16 97.1039 38.16C93.3359 38.16 90.4799 40.728 90.4799 44.664V44.856C90.4799 48.768 93.3359 51.264 97.0799 51.264ZM107.389 51H110.845L113.149 43.128L115.285 51H118.693L122.653 38.448H119.317L116.941 46.896L114.733 38.448H111.877L109.453 46.896L107.221 38.448H103.573L107.389 51ZM128.909 51.264C132.341 51.264 134.501 49.752 134.909 47.04H131.621C131.405 48.096 130.613 48.792 129.005 48.792C127.109 48.792 125.981 47.592 125.885 45.504H134.933V44.544C134.933 40.056 132.053 38.16 128.813 38.16C125.165 38.16 122.357 40.728 122.357 44.688V44.88C122.357 48.888 125.117 51.264 128.909 51.264ZM125.933 43.368C126.197 41.592 127.253 40.56 128.813 40.56C130.469 40.56 131.429 41.472 131.549 43.368H125.933ZM136.251 51H139.731V44.712C139.731 42.312 141.219 41.472 143.787 41.496V38.256C141.747 38.28 140.523 39.168 139.731 40.848V38.448H136.251V51ZM150.661 51.264C154.093 51.264 156.253 49.752 156.661 47.04H153.373C153.157 48.096 152.365 48.792 150.757 48.792C148.861 48.792 147.733 47.592 147.637 45.504H156.685V44.544C156.685 40.056 153.805 38.16 150.565 38.16C146.917 38.16 144.109 40.728 144.109 44.688V44.88C144.109 48.888 146.869 51.264 150.661 51.264ZM147.685 43.368C147.949 41.592 149.005 40.56 150.565 40.56C152.221 40.56 153.181 41.472 153.301 43.368H147.685ZM162.707 51.264C164.555 51.264 166.091 50.184 166.739 48.912V51H170.195V32.76H166.739V40.32C166.043 39.048 164.795 38.16 162.779 38.16C159.635 38.16 157.259 40.584 157.259 44.712V44.904C157.259 49.08 159.659 51.264 162.707 51.264ZM163.739 48.552C162.011 48.552 160.811 47.328 160.811 44.832V44.64C160.811 42.144 161.891 40.824 163.835 40.824C165.731 40.824 166.835 42.096 166.835 44.592V44.784C166.835 47.328 165.563 48.552 163.739 48.552ZM184.172 51.264C187.292 51.264 189.644 48.936 189.644 44.784V44.592C189.644 40.44 187.244 38.16 184.172 38.16C182.324 38.16 180.86 39.216 180.164 40.416V32.76H176.684V51H180.164V49.008C180.812 50.304 182.228 51.264 184.172 51.264ZM183.14 48.552C181.244 48.552 180.044 47.328 180.044 44.808V44.616C180.044 42.096 181.292 40.824 183.116 40.824C184.868 40.824 186.116 42.072 186.116 44.616V44.808C186.116 47.256 185.06 48.552 183.14 48.552ZM192.238 55.272H195.598L202.39 38.448H199.054L196.246 45.984L193.198 38.448H189.454L194.446 49.728L192.238 55.272ZM207.983 51H211.847V44.76H214.031C217.943 44.76 220.463 43.032 220.463 39.408V39.312C220.463 35.688 218.087 33.84 213.911 33.84H207.983V51ZM211.847 42.048V36.792H213.815C215.663 36.792 216.719 37.512 216.719 39.336V39.432C216.719 41.136 215.711 42.048 213.815 42.048H211.847ZM227.239 48.624C225.271 48.624 224.167 47.184 224.167 44.784V44.592C224.167 42.192 225.319 40.8 227.239 40.8C229.183 40.8 230.311 42.24 230.311 44.64V44.808C230.311 47.184 229.183 48.624 227.239 48.624ZM227.215 51.264C230.983 51.264 233.839 48.744 233.839 44.784V44.592C233.839 40.68 231.007 38.16 227.239 38.16C223.471 38.16 220.615 40.728 220.615 44.664V44.856C220.615 48.768 223.471 51.264 227.215 51.264ZM235.308 51H238.764V32.76H235.308V51ZM242.563 55.272H245.923L252.715 38.448H249.379L246.571 45.984L243.523 38.448H239.779L244.771 49.728L242.563 55.272ZM253.636 51H257.116V43.584C257.116 41.88 258.196 41.016 259.54 41.016C260.764 41.016 261.508 41.736 261.508 43.344V51H264.964V43.584C264.964 41.88 266.044 41.016 267.388 41.016C268.636 41.016 269.356 41.736 269.356 43.344V51H272.812V42.96C272.812 39.624 271.012 38.16 268.684 38.16C267.1 38.16 265.468 38.832 264.46 40.344C263.86 38.856 262.612 38.16 260.956 38.16C259.084 38.16 257.74 39.192 257.116 40.368V38.448H253.636V51ZM280.608 51.264C284.04 51.264 286.2 49.752 286.608 47.04H283.32C283.104 48.096 282.312 48.792 280.704 48.792C278.808 48.792 277.68 47.592 277.584 45.504H286.632V44.544C286.632 40.056 283.752 38.16 280.512 38.16C276.864 38.16 274.056 40.728 274.056 44.688V44.88C274.056 48.888 276.816 51.264 280.608 51.264ZM277.632 43.368C277.896 41.592 278.952 40.56 280.512 40.56C282.168 40.56 283.128 41.472 283.248 43.368H277.632ZM287.95 51H291.43V44.712C291.43 42.312 292.918 41.472 295.486 41.496V38.256C293.446 38.28 292.222 39.168 291.43 40.848V38.448H287.95V51Z"/><defs><filter id="filter0_d" width="333" height="92" x="0" y="0" color-interpolation-filters="sRGB" filterUnits="userSpaceOnUse"><feFlood flood-opacity="0" result="BackgroundImageFix"/><feColorMatrix in="SourceAlpha" type="matrix" values="0 0 0 0 0 0 0 0 0 0 0 0 0 0 0 0 0 0 127 0"/><feOffset dy="4"/><feGaussianBlur stdDeviation="8"/><feColorMatrix type="matrix" values="0 0 0 0 0 0 0 0 0 0 0 0 0 0 0 0 0 0 0.25 0"/><feBlend in2="BackgroundImageFix" mode="normal" result="effect1_dropShadow"/><feBlend in="SourceGraphic" in2="effect1_dropShadow" mode="normal" result="shape"/></filter><filter id="filter1_d" width="56" height="56" x="18" y="18" color-interpolation-filters="sRGB" filterUnits="userSpaceOnUse"><feFlood flood-opacity="0" result="BackgroundImageFix"/><feColorMatrix in="SourceAlpha" type="matrix" values="0 0 0 0 0 0 0 0 0 0 0 0 0 0 0 0 0 0 127 0"/><feOffset dy="4"/><feGaussianBlur stdDeviation="4"/><feColorMatrix type="matrix" values="0 0 0 0 0 0 0 0 0 0 0 0 0 0 0 0 0 0 0.25 0"/><feBlend in2="BackgroundImageFix" mode="normal" result="effect1_dropShadow"/><feBlend in="SourceGraphic" in2="effect1_dropShadow" mode="normal" result="shape"/></filter><filter id="filter2_d" width="43.84" height="43.84" x="24.08" y="21.04" color-interpolation-filters="sRGB" filterUnits="userSpaceOnUse"><feFlood flood-opacity="0" result="BackgroundImageFix"/><feColorMatrix in="SourceAlpha" type="matrix" values="0 0 0 0 0 0 0 0 0 0 0 0 0 0 0 0 0 0 127 0"/><feOffset dy=".96"/><feGaussianBlur stdDeviation=".96"/><feColorMatrix type="matrix" values="0 0 0 0 0 0 0 0 0 0 0 0 0 0 0 0 0 0 0.25 0"/><feBlend in2="BackgroundImageFix" mode="normal" result="effect1_dropShadow"/><feBlend in="SourceGraphic" in2="effect1_dropShadow" mode="normal" result="shape"/></filter><filter id="filter3_d" width="18.546" height="27.369" x="37.83" y="29.79" color-interpolation-filters="sRGB" filterUnits="userSpaceOnUse"><feFlood flood-opacity="0" result="BackgroundImageFix"/><feColorMatrix in="SourceAlpha" type="matrix" values="0 0 0 0 0 0 0 0 0 0 0 0 0 0 0 0 0 0 127 0"/><feOffset dy=".96"/><feGaussianBlur stdDeviation=".96"/><feColorMatrix type="matrix" values="0 0 0 0 0 0 0 0 0 0 0 0 0 0 0 0 0 0 0.25 0"/><feBlend in2="BackgroundImageFix" mode="normal" result="effect1_dropShadow"/><feBlend in="SourceGraphic" in2="effect1_dropShadow" mode="normal" result="shape"/></filter><radialGradient id="paint0_radial" cx="0" cy="0" r="1" gradientTransform="translate(26 44.5) rotate(-40.6013) scale(40.3355 71.9979)" gradientUnits="userSpaceOnUse"><stop offset=".244" stop-color="#2F80ED"/><stop offset=".488" stop-color="#2D9CDB"/><stop offset="1" stop-color="#56CCF2"/></radialGradient></defs></svg>