<svg width="473" height="92" viewBox="0 0 473 92" fill="none" xmlns="http://www.w3.org/2000/svg">
<g filter="url(#filter0_d)">
<rect x="16" y="12" width="441" height="60" rx="30" fill="#F4F4F4"/>
</g>
<g filter="url(#filter1_d)">
<g filter="url(#filter2_d)">
<path d="M46 62C57.0457 62 66 53.0457 66 42C66 30.9543 57.0457 22 46 22C34.9543 22 26 30.9543 26 42C26 53.0457 34.9543 62 46 62Z" fill="url(#paint0_radial)"/>
</g>
<g filter="url(#filter3_d)">
<path fill-rule="evenodd" clip-rule="evenodd" d="M51.5147 30.75C53.1391 30.75 54.4559 32.0668 54.4559 33.6912C54.4559 35.1481 53.3965 36.3576 52.0061 36.5915V39.6144C53.3965 39.8482 54.4559 41.0578 54.4559 42.5147C54.4559 44.1391 53.1391 45.4559 51.5147 45.4559C50.0578 45.4559 48.8482 44.3965 48.6144 43.0061H45.5915C45.3845 44.2368 44.4132 45.208 43.1825 45.415V48.4379C44.573 48.6718 45.6324 49.8813 45.6324 51.3382C45.6324 52.9626 44.3155 54.2794 42.6912 54.2794C41.0668 54.2794 39.75 52.9626 39.75 51.3382C39.75 49.8813 40.8093 48.6718 42.1998 48.4379V45.415C40.8093 45.1812 39.75 43.9717 39.75 42.5147C39.75 40.8903 41.0668 39.5735 42.6912 39.5735C44.1481 39.5735 45.3576 40.6329 45.5915 42.0233H48.6144C48.8214 40.7927 49.7927 39.8214 51.0233 39.6144V36.5915C49.7927 36.3845 48.8214 35.4132 48.6144 34.1825H45.5915C45.3576 35.573 44.1481 36.6324 42.6912 36.6324C41.0668 36.6324 39.75 35.3155 39.75 33.6912C39.75 32.0668 41.0668 30.75 42.6912 30.75C44.1481 30.75 45.3576 31.8093 45.5915 33.1998H48.6144C48.8482 31.8093 50.0578 30.75 51.5147 30.75Z" fill="white"/>
</g>
</g>
<path d="M81.208 51H85.12V36.864H89.752V33.84H76.576V36.864H81.208V51ZM90.0526 51H93.5326V44.712C93.5326 42.312 95.0206 41.472 97.5886 41.496V38.256C95.5486 38.28 94.3246 39.168 93.5326 40.848V38.448H90.0526V51ZM102.063 51.264C104.03 51.264 105.135 50.496 105.855 49.488V51H109.239V42.816C109.239 39.408 107.055 38.16 103.983 38.16C100.911 38.16 98.5585 39.48 98.3425 42.456H101.631C101.775 41.376 102.399 40.68 103.767 40.68C105.351 40.68 105.807 41.496 105.807 42.984V43.488H104.391C100.551 43.488 97.8625 44.592 97.8625 47.52C97.8625 50.16 99.7825 51.264 102.063 51.264ZM103.095 48.84C101.823 48.84 101.271 48.24 101.271 47.328C101.271 45.984 102.447 45.552 104.463 45.552H105.807V46.608C105.807 48 104.631 48.84 103.095 48.84ZM111.265 51H114.745V43.752C114.745 41.904 115.873 40.992 117.361 40.992C118.897 40.992 119.569 41.808 119.569 43.512V51H123.049V43.008C123.049 39.648 121.297 38.16 118.825 38.16C116.737 38.16 115.369 39.192 114.745 40.44V38.448H111.265V51ZM129.631 51.264C132.943 51.264 134.911 49.848 134.911 47.136C134.911 44.448 133.183 43.656 130.039 43.2C128.215 42.936 127.615 42.624 127.615 41.832C127.615 41.064 128.263 40.536 129.391 40.536C130.591 40.536 131.167 41.016 131.359 42.048H134.551C134.239 39.168 132.151 38.16 129.367 38.16C126.799 38.16 124.399 39.456 124.399 42.072C124.399 44.52 125.695 45.48 129.031 45.984C130.831 46.248 131.575 46.608 131.575 47.472C131.575 48.336 130.951 48.84 129.607 48.84C128.095 48.84 127.543 48.192 127.399 47.064H124.159C124.279 49.776 126.247 51.264 129.631 51.264ZM136.734 51H140.19V40.92H142.926V38.448H140.19V36.912C140.19 35.952 140.646 35.256 141.75 35.256C142.254 35.256 142.686 35.352 143.022 35.472V32.856C142.47 32.688 141.966 32.616 141.222 32.616C138.438 32.616 136.734 34.08 136.734 37.008V38.448H135.078V40.92H136.734V51ZM149.491 48.624C147.523 48.624 146.419 47.184 146.419 44.784V44.592C146.419 42.192 147.571 40.8 149.491 40.8C151.435 40.8 152.563 42.24 152.563 44.64V44.808C152.563 47.184 151.435 48.624 149.491 48.624ZM149.467 51.264C153.235 51.264 156.091 48.744 156.091 44.784V44.592C156.091 40.68 153.259 38.16 149.491 38.16C145.723 38.16 142.867 40.728 142.867 44.664V44.856C142.867 48.768 145.723 51.264 149.467 51.264ZM157.464 51H160.944V44.712C160.944 42.312 162.432 41.472 165 41.496V38.256C162.96 38.28 161.736 39.168 160.944 40.848V38.448H157.464V51ZM166.325 51H169.805V43.584C169.805 41.88 170.885 41.016 172.229 41.016C173.453 41.016 174.197 41.736 174.197 43.344V51H177.653V43.584C177.653 41.88 178.733 41.016 180.077 41.016C181.325 41.016 182.045 41.736 182.045 43.344V51H185.501V42.96C185.501 39.624 183.701 38.16 181.373 38.16C179.789 38.16 178.157 38.832 177.149 40.344C176.549 38.856 175.301 38.16 173.645 38.16C171.773 38.16 170.429 39.192 169.805 40.368V38.448H166.325V51ZM193.458 55.272H196.818L203.61 38.448H200.274L197.466 45.984L194.418 38.448H190.674L195.666 49.728L193.458 55.272ZM209.777 48.624C207.809 48.624 206.705 47.184 206.705 44.784V44.592C206.705 42.192 207.857 40.8 209.777 40.8C211.721 40.8 212.849 42.24 212.849 44.64V44.808C212.849 47.184 211.721 48.624 209.777 48.624ZM209.753 51.264C213.521 51.264 216.377 48.744 216.377 44.784V44.592C216.377 40.68 213.545 38.16 209.777 38.16C206.009 38.16 203.153 40.728 203.153 44.664V44.856C203.153 48.768 206.009 51.264 209.753 51.264ZM221.926 51.264C223.99 51.264 225.262 50.304 225.91 49.032V51H229.366V38.448H225.91V45.816C225.91 47.664 224.758 48.576 223.294 48.576C221.806 48.576 221.11 47.76 221.11 46.056V38.448H217.654V46.536C217.654 49.824 219.478 51.264 221.926 51.264ZM231.486 51H234.966V44.712C234.966 42.312 236.454 41.472 239.022 41.496V38.256C236.982 38.28 235.758 39.168 234.966 40.848V38.448H231.486V51ZM249.41 51.264C251.258 51.264 252.794 50.184 253.442 48.912V51H256.898V32.76H253.442V40.32C252.746 39.048 251.498 38.16 249.482 38.16C246.338 38.16 243.962 40.584 243.962 44.712V44.904C243.962 49.08 246.362 51.264 249.41 51.264ZM250.442 48.552C248.714 48.552 247.514 47.328 247.514 44.832V44.64C247.514 42.144 248.594 40.824 250.538 40.824C252.434 40.824 253.538 42.096 253.538 44.592V44.784C253.538 47.328 252.266 48.552 250.442 48.552ZM262.412 51.264C264.38 51.264 265.484 50.496 266.204 49.488V51H269.588V42.816C269.588 39.408 267.404 38.16 264.332 38.16C261.26 38.16 258.908 39.48 258.692 42.456H261.98C262.124 41.376 262.748 40.68 264.116 40.68C265.7 40.68 266.156 41.496 266.156 42.984V43.488H264.74C260.9 43.488 258.212 44.592 258.212 47.52C258.212 50.16 260.132 51.264 262.412 51.264ZM263.444 48.84C262.172 48.84 261.62 48.24 261.62 47.328C261.62 45.984 262.796 45.552 264.812 45.552H266.156V46.608C266.156 48 264.98 48.84 263.444 48.84ZM276.198 51.24C277.134 51.24 277.83 51.072 278.31 50.904V48.216C277.902 48.384 277.518 48.456 276.99 48.456C276.102 48.456 275.598 47.976 275.598 46.968V40.92H278.238V38.448H275.598V35.736H272.142V38.448H270.534V40.92H272.142V47.28C272.142 49.896 273.558 51.24 276.198 51.24ZM283.203 51.264C285.171 51.264 286.275 50.496 286.995 49.488V51H290.379V42.816C290.379 39.408 288.195 38.16 285.123 38.16C282.051 38.16 279.699 39.48 279.483 42.456H282.771C282.915 41.376 283.539 40.68 284.907 40.68C286.491 40.68 286.947 41.496 286.947 42.984V43.488H285.531C281.691 43.488 279.003 44.592 279.003 47.52C279.003 50.16 280.923 51.264 283.203 51.264ZM284.235 48.84C282.963 48.84 282.411 48.24 282.411 47.328C282.411 45.984 283.587 45.552 285.603 45.552H286.947V46.608C286.947 48 285.771 48.84 284.235 48.84ZM299.43 51H302.886L305.19 43.128L307.326 51H310.734L314.694 38.448H311.358L308.982 46.896L306.774 38.448H303.918L301.494 46.896L299.262 38.448H295.614L299.43 51ZM315.73 51H319.186V38.448H315.73V51ZM317.434 36.744C318.562 36.744 319.426 35.928 319.426 34.848C319.426 33.768 318.562 32.952 317.434 32.952C316.33 32.952 315.466 33.768 315.466 34.848C315.466 35.928 316.33 36.744 317.434 36.744ZM326.008 51.24C326.944 51.24 327.64 51.072 328.12 50.904V48.216C327.712 48.384 327.328 48.456 326.8 48.456C325.912 48.456 325.408 47.976 325.408 46.968V40.92H328.048V38.448H325.408V35.736H321.952V38.448H320.344V40.92H321.952V47.28C321.952 49.896 323.368 51.24 326.008 51.24ZM329.511 51H332.991V43.752C332.991 41.904 334.119 40.992 335.607 40.992C337.143 40.992 337.815 41.808 337.815 43.512V51H341.295V43.008C341.295 39.648 339.543 38.16 337.071 38.16C334.983 38.16 333.615 39.192 332.991 40.44V32.76H329.511V51ZM347.989 51H351.853V44.76H354.037C357.949 44.76 360.469 43.032 360.469 39.408V39.312C360.469 35.688 358.093 33.84 353.917 33.84H347.989V51ZM351.853 42.048V36.792H353.821C355.669 36.792 356.725 37.512 356.725 39.336V39.432C356.725 41.136 355.717 42.048 353.821 42.048H351.853ZM367.245 48.624C365.277 48.624 364.173 47.184 364.173 44.784V44.592C364.173 42.192 365.325 40.8 367.245 40.8C369.189 40.8 370.317 42.24 370.317 44.64V44.808C370.317 47.184 369.189 48.624 367.245 48.624ZM367.221 51.264C370.989 51.264 373.845 48.744 373.845 44.784V44.592C373.845 40.68 371.013 38.16 367.245 38.16C363.477 38.16 360.621 40.728 360.621 44.664V44.856C360.621 48.768 363.477 51.264 367.221 51.264ZM375.314 51H378.77V32.76H375.314V51ZM382.568 55.272H385.928L392.72 38.448H389.384L386.576 45.984L383.528 38.448H379.784L384.776 49.728L382.568 55.272ZM393.641 51H397.121V43.584C397.121 41.88 398.201 41.016 399.545 41.016C400.769 41.016 401.513 41.736 401.513 43.344V51H404.969V43.584C404.969 41.88 406.049 41.016 407.393 41.016C408.641 41.016 409.361 41.736 409.361 43.344V51H412.817V42.96C412.817 39.624 411.017 38.16 408.689 38.16C407.105 38.16 405.473 38.832 404.465 40.344C403.865 38.856 402.617 38.16 400.961 38.16C399.089 38.16 397.745 39.192 397.121 40.368V38.448H393.641V51ZM420.614 51.264C424.046 51.264 426.206 49.752 426.614 47.04H423.326C423.11 48.096 422.318 48.792 420.71 48.792C418.814 48.792 417.686 47.592 417.59 45.504H426.638V44.544C426.638 40.056 423.758 38.16 420.518 38.16C416.87 38.16 414.062 40.728 414.062 44.688V44.88C414.062 48.888 416.822 51.264 420.614 51.264ZM417.638 43.368C417.902 41.592 418.958 40.56 420.518 40.56C422.174 40.56 423.134 41.472 423.254 43.368H417.638ZM427.956 51H431.436V44.712C431.436 42.312 432.924 41.472 435.492 41.496V38.256C433.452 38.28 432.228 39.168 431.436 40.848V38.448H427.956V51Z" fill="#161616"/>
<defs>
<filter id="filter0_d" x="0" y="0" width="473" height="92" filterUnits="userSpaceOnUse" color-interpolation-filters="sRGB">
<feFlood flood-opacity="0" result="BackgroundImageFix"/>
<feColorMatrix in="SourceAlpha" type="matrix" values="0 0 0 0 0 0 0 0 0 0 0 0 0 0 0 0 0 0 127 0"/>
<feOffset dy="4"/>
<feGaussianBlur stdDeviation="8"/>
<feColorMatrix type="matrix" values="0 0 0 0 0 0 0 0 0 0 0 0 0 0 0 0 0 0 0.25 0"/>
<feBlend mode="normal" in2="BackgroundImageFix" result="effect1_dropShadow"/>
<feBlend mode="normal" in="SourceGraphic" in2="effect1_dropShadow" result="shape"/>
</filter>
<filter id="filter1_d" x="18" y="18" width="56" height="56" filterUnits="userSpaceOnUse" color-interpolation-filters="sRGB">
<feFlood flood-opacity="0" result="BackgroundImageFix"/>
<feColorMatrix in="SourceAlpha" type="matrix" values="0 0 0 0 0 0 0 0 0 0 0 0 0 0 0 0 0 0 127 0"/>
<feOffset dy="4"/>
<feGaussianBlur stdDeviation="4"/>
<feColorMatrix type="matrix" values="0 0 0 0 0 0 0 0 0 0 0 0 0 0 0 0 0 0 0.25 0"/>
<feBlend mode="normal" in2="BackgroundImageFix" result="effect1_dropShadow"/>
<feBlend mode="normal" in="SourceGraphic" in2="effect1_dropShadow" result="shape"/>
</filter>
<filter id="filter2_d" x="24.08" y="21.04" width="43.84" height="43.84" filterUnits="userSpaceOnUse" color-interpolation-filters="sRGB">
<feFlood flood-opacity="0" result="BackgroundImageFix"/>
<feColorMatrix in="SourceAlpha" type="matrix" values="0 0 0 0 0 0 0 0 0 0 0 0 0 0 0 0 0 0 127 0"/>
<feOffset dy="0.96"/>
<feGaussianBlur stdDeviation="0.96"/>
<feColorMatrix type="matrix" values="0 0 0 0 0 0 0 0 0 0 0 0 0 0 0 0 0 0 0.25 0"/>
<feBlend mode="normal" in2="BackgroundImageFix" result="effect1_dropShadow"/>
<feBlend mode="normal" in="SourceGraphic" in2="effect1_dropShadow" result="shape"/>
</filter>
<filter id="filter3_d" x="37.83" y="29.79" width="18.5459" height="27.3694" filterUnits="userSpaceOnUse" color-interpolation-filters="sRGB">
<feFlood flood-opacity="0" result="BackgroundImageFix"/>
<feColorMatrix in="SourceAlpha" type="matrix" values="0 0 0 0 0 0 0 0 0 0 0 0 0 0 0 0 0 0 127 0"/>
<feOffset dy="0.96"/>
<feGaussianBlur stdDeviation="0.96"/>
<feColorMatrix type="matrix" values="0 0 0 0 0 0 0 0 0 0 0 0 0 0 0 0 0 0 0.25 0"/>
<feBlend mode="normal" in2="BackgroundImageFix" result="effect1_dropShadow"/>
<feBlend mode="normal" in="SourceGraphic" in2="effect1_dropShadow" result="shape"/>
</filter>
<radialGradient id="paint0_radial" cx="0" cy="0" r="1" gradientUnits="userSpaceOnUse" gradientTransform="translate(26 44.5) rotate(-40.6013) scale(40.3355 71.9979)">
<stop offset="0.243575" stop-color="#2F80ED"/>
<stop offset="0.488371" stop-color="#2D9CDB"/>
<stop offset="1" stop-color="#56CCF2"/>
</radialGradient>
</defs>
</svg>
