<svg xmlns="http://www.w3.org/2000/svg" width="396" height="112" fill="none" viewBox="0 0 396 112"><g filter="url(#filter0_d)"><rect width="364" height="80" x="16" y="12" fill="#F4F4F4" rx="40"/></g><g filter="url(#filter1_d)"><g filter="url(#filter2_d)"><path fill="url(#paint0_radial)" d="M56 80C71.464 80 84 67.464 84 52C84 36.536 71.464 24 56 24C40.536 24 28 36.536 28 52C28 67.464 40.536 80 56 80Z"/></g><g filter="url(#filter3_d)"><path fill="#fff" fill-rule="evenodd" d="M63.7206 36.25C65.9947 36.25 67.8382 38.0935 67.8382 40.3676C67.8382 42.4074 66.3551 44.1007 64.4085 44.4281V48.6601C66.3551 48.9875 67.8382 50.6809 67.8382 52.7206C67.8382 54.9947 65.9947 56.8382 63.7206 56.8382C61.6809 56.8382 59.9875 55.3551 59.6601 53.4085H55.4281C55.1383 55.1314 53.7785 56.4913 52.0556 56.781V61.0131C54.0022 61.3405 55.4853 63.0338 55.4853 65.0735C55.4853 67.3476 53.6418 69.1912 51.3676 69.1912C49.0935 69.1912 47.25 67.3476 47.25 65.0735C47.25 63.0338 48.7331 61.3405 50.6797 61.0131V56.781C48.7331 56.4536 47.25 54.7603 47.25 52.7206C47.25 50.4465 49.0935 48.6029 51.3676 48.6029C53.4074 48.6029 55.1007 50.086 55.4281 52.0327H59.6601C59.9499 50.3097 61.3097 48.9499 63.0327 48.6601V44.4281C61.3097 44.1383 59.9499 42.7785 59.6601 41.0556H55.4281C55.1007 43.0022 53.4074 44.4853 51.3676 44.4853C49.0935 44.4853 47.25 42.6418 47.25 40.3676C47.25 38.0935 49.0935 36.25 51.3676 36.25C53.4074 36.25 55.1007 37.7331 55.4281 39.6797H59.6601C59.9875 37.7331 61.6809 36.25 63.7206 36.25Z" clip-rule="evenodd"/></g></g><path fill="#161616" d="M98.464 63H107.872C113.152 63 115.904 60.792 115.904 56.6V56.472C115.904 53.4 114.304 51.704 111.328 51.096C113.888 50.36 115.04 48.6 115.04 46.2V46.072C115.04 42.168 112.448 40.12 107.456 40.12H98.464V63ZM103.52 59.416V52.856H106.816C109.632 52.856 110.784 53.944 110.784 56.056V56.184C110.784 58.264 109.632 59.416 107.072 59.416H103.52ZM103.52 49.528V43.672H106.592C109.024 43.672 110.112 44.536 110.112 46.456V46.584C110.112 48.632 109.12 49.528 106.624 49.528H103.52ZM123.43 63.352C126.182 63.352 127.878 62.072 128.742 60.376V63H133.35V46.264H128.742V56.088C128.742 58.552 127.206 59.768 125.254 59.768C123.27 59.768 122.342 58.68 122.342 56.408V46.264H117.734V57.048C117.734 61.432 120.166 63.352 123.43 63.352ZM136.303 63H140.911V46.264H136.303V63ZM138.575 43.992C140.079 43.992 141.231 42.904 141.231 41.464C141.231 40.024 140.079 38.936 138.575 38.936C137.103 38.936 135.951 40.024 135.951 41.464C135.951 42.904 137.103 43.992 138.575 43.992ZM144.023 63H148.632V38.68H144.023V63ZM157.696 63.32C158.944 63.32 159.872 63.096 160.512 62.872V59.288C159.968 59.512 159.456 59.608 158.752 59.608C157.568 59.608 156.896 58.968 156.896 57.624V49.56H160.416V46.264H156.896V42.648H152.288V46.264H150.144V49.56H152.288V58.04C152.288 61.528 154.176 63.32 157.696 63.32ZM171.733 63H176.34L179.413 52.504L182.26 63H186.805L192.085 46.264H187.637L184.469 57.528L181.525 46.264H177.717L174.484 57.528L171.509 46.264H166.644L171.733 63ZM193.466 63H198.074V46.264H193.466V63ZM195.738 43.992C197.242 43.992 198.394 42.904 198.394 41.464C198.394 40.024 197.242 38.936 195.738 38.936C194.266 38.936 193.114 40.024 193.114 41.464C193.114 42.904 194.266 43.992 195.738 43.992ZM207.17 63.32C208.418 63.32 209.346 63.096 209.986 62.872V59.288C209.442 59.512 208.93 59.608 208.226 59.608C207.042 59.608 206.37 58.968 206.37 57.624V49.56H209.89V46.264H206.37V42.648H201.762V46.264H199.618V49.56H201.762V58.04C201.762 61.528 203.65 63.32 207.17 63.32ZM211.841 63H216.481V53.336C216.481 50.872 217.985 49.656 219.969 49.656C222.017 49.656 222.913 50.744 222.913 53.016V63H227.553V52.344C227.553 47.864 225.217 45.88 221.921 45.88C219.137 45.88 217.313 47.256 216.481 48.92V38.68H211.841V63ZM236.478 63H241.63V54.68H244.542C249.758 54.68 253.118 52.376 253.118 47.544V47.416C253.118 42.584 249.95 40.12 244.382 40.12H236.478V63ZM241.63 51.064V44.056H244.254C246.718 44.056 248.126 45.016 248.126 47.448V47.576C248.126 49.848 246.782 51.064 244.254 51.064H241.63ZM262.152 59.832C259.528 59.832 258.056 57.912 258.056 54.712V54.456C258.056 51.256 259.592 49.4 262.152 49.4C264.744 49.4 266.248 51.32 266.248 54.52V54.744C266.248 57.912 264.744 59.832 262.152 59.832ZM262.12 63.352C267.144 63.352 270.952 59.992 270.952 54.712V54.456C270.952 49.24 267.176 45.88 262.152 45.88C257.128 45.88 253.32 49.304 253.32 54.552V54.808C253.32 60.024 257.128 63.352 262.12 63.352ZM272.911 63H277.519V38.68H272.911V63ZM282.584 68.696H287.064L296.12 46.264H291.672L287.928 56.312L283.864 46.264H278.872L285.528 61.304L282.584 68.696ZM297.348 63H301.988V53.112C301.988 50.84 303.428 49.688 305.22 49.688C306.852 49.688 307.844 50.648 307.844 52.792V63H312.452V53.112C312.452 50.84 313.892 49.688 315.684 49.688C317.348 49.688 318.308 50.648 318.308 52.792V63H322.916V52.28C322.916 47.832 320.516 45.88 317.412 45.88C315.3 45.88 313.124 46.776 311.78 48.792C310.98 46.808 309.316 45.88 307.108 45.88C304.612 45.88 302.82 47.256 301.988 48.824V46.264H297.348V63ZM333.311 63.352C337.887 63.352 340.767 61.336 341.311 57.72H336.927C336.639 59.128 335.583 60.056 333.439 60.056C330.911 60.056 329.407 58.456 329.279 55.672H341.343V54.392C341.343 48.408 337.503 45.88 333.183 45.88C328.319 45.88 324.575 49.304 324.575 54.584V54.84C324.575 60.184 328.255 63.352 333.311 63.352ZM329.343 52.824C329.695 50.456 331.103 49.08 333.183 49.08C335.391 49.08 336.671 50.296 336.831 52.824H329.343ZM343.101 63H347.741V54.616C347.741 51.416 349.725 50.296 353.149 50.328V46.008C350.429 46.04 348.797 47.224 347.741 49.464V46.264H343.101V63Z"/><defs><filter id="filter0_d" width="396" height="112" x="0" y="0" color-interpolation-filters="sRGB" filterUnits="userSpaceOnUse"><feFlood flood-opacity="0" result="BackgroundImageFix"/><feColorMatrix in="SourceAlpha" type="matrix" values="0 0 0 0 0 0 0 0 0 0 0 0 0 0 0 0 0 0 127 0"/><feOffset dy="4"/><feGaussianBlur stdDeviation="8"/><feColorMatrix type="matrix" values="0 0 0 0 0 0 0 0 0 0 0 0 0 0 0 0 0 0 0.25 0"/><feBlend in2="BackgroundImageFix" mode="normal" result="effect1_dropShadow"/><feBlend in="SourceGraphic" in2="effect1_dropShadow" mode="normal" result="shape"/></filter><filter id="filter1_d" width="86" height="86" x="13" y="14" color-interpolation-filters="sRGB" filterUnits="userSpaceOnUse"><feFlood flood-opacity="0" result="BackgroundImageFix"/><feColorMatrix in="SourceAlpha" type="matrix" values="0 0 0 0 0 0 0 0 0 0 0 0 0 0 0 0 0 0 127 0"/><feOffset dy="5"/><feGaussianBlur stdDeviation="7.5"/><feColorMatrix type="matrix" values="0 0 0 0 0 0 0 0 0 0 0 0 0 0 0 0 0 0 0.25 0"/><feBlend in2="BackgroundImageFix" mode="normal" result="effect1_dropShadow"/><feBlend in="SourceGraphic" in2="effect1_dropShadow" mode="normal" result="shape"/></filter><filter id="filter2_d" width="59.84" height="59.84" x="26.08" y="23.04" color-interpolation-filters="sRGB" filterUnits="userSpaceOnUse"><feFlood flood-opacity="0" result="BackgroundImageFix"/><feColorMatrix in="SourceAlpha" type="matrix" values="0 0 0 0 0 0 0 0 0 0 0 0 0 0 0 0 0 0 127 0"/><feOffset dy=".96"/><feGaussianBlur stdDeviation=".96"/><feColorMatrix type="matrix" values="0 0 0 0 0 0 0 0 0 0 0 0 0 0 0 0 0 0 0.25 0"/><feBlend in2="BackgroundImageFix" mode="normal" result="effect1_dropShadow"/><feBlend in="SourceGraphic" in2="effect1_dropShadow" mode="normal" result="shape"/></filter><filter id="filter3_d" width="24.428" height="36.781" x="45.33" y="35.29" color-interpolation-filters="sRGB" filterUnits="userSpaceOnUse"><feFlood flood-opacity="0" result="BackgroundImageFix"/><feColorMatrix in="SourceAlpha" type="matrix" values="0 0 0 0 0 0 0 0 0 0 0 0 0 0 0 0 0 0 127 0"/><feOffset dy=".96"/><feGaussianBlur stdDeviation=".96"/><feColorMatrix type="matrix" values="0 0 0 0 0 0 0 0 0 0 0 0 0 0 0 0 0 0 0.25 0"/><feBlend in2="BackgroundImageFix" mode="normal" result="effect1_dropShadow"/><feBlend in="SourceGraphic" in2="effect1_dropShadow" mode="normal" result="shape"/></filter><radialGradient id="paint0_radial" cx="0" cy="0" r="1" gradientTransform="translate(28 55.5) rotate(-40.6013) scale(56.4697 100.797)" gradientUnits="userSpaceOnUse"><stop offset=".244" stop-color="#2F80ED"/><stop offset=".488" stop-color="#2D9CDB"/><stop offset="1" stop-color="#56CCF2"/></radialGradient></defs></svg>