<svg xmlns="http://www.w3.org/2000/svg" width="300" height="119" fill="none" viewBox="0 0 300 119"><path fill="#E50913" d="M3.82873 50.5629H39.4707V59.1254H13.9227V71.0989H35.5724V79.7309H13.9227V100.336H3.82873V50.5629ZM46.5539 50.5629H56.6478V91.9132H80.0378V100.336H46.5539V50.5629ZM86.9013 50.5629H96.9952V100.336H86.9013V50.5629ZM118.912 74.3011L104.015 50.5629H115.362L124.551 66.2955H124.69L133.879 50.5629H144.878L130.259 74.2315L146.757 100.336H134.993L124.829 82.1674H124.69L114.387 100.336H102.831L118.912 74.3011ZM185.229 93.6536H185.09C183.373 96.5309 181.354 98.5497 179.034 99.7099C176.713 100.824 174.068 101.381 171.098 101.381C167.339 101.381 163.997 100.754 161.074 99.5011C158.196 98.2016 155.713 96.4149 153.625 94.1408C151.537 91.8204 149.936 89.1055 148.822 85.9961C147.708 82.8403 147.151 79.3828 147.151 75.6237C147.151 71.4469 147.847 67.6182 149.239 64.1375C150.632 60.6569 152.65 57.7099 155.296 55.2967C157.338 53.4403 159.681 52.0248 162.327 51.0502C164.972 50.0757 167.965 49.5884 171.307 49.5884C174.416 49.5884 177.201 50.006 179.66 50.8414C182.166 51.6304 184.301 52.7674 186.065 54.2524C187.828 55.7375 189.244 57.5011 190.311 59.5431C191.425 61.585 192.191 63.8127 192.608 66.2259H182.723C182.166 63.8127 180.96 61.8403 179.103 60.3088C177.247 58.7309 174.718 57.942 171.516 57.942C169.149 57.942 167.084 58.406 165.32 59.3342C163.603 60.216 162.141 61.469 160.934 63.0933C159.774 64.6712 158.892 66.5508 158.289 68.732C157.732 70.8668 157.454 73.1641 157.454 75.6237C157.454 78.1762 157.779 80.5431 158.428 82.7243C159.078 84.8591 160.006 86.7154 161.213 88.2933C162.42 89.8248 163.881 91.0315 165.599 91.9132C167.316 92.795 169.242 93.2359 171.376 93.2359C173.326 93.2359 175.089 92.911 176.667 92.2613C178.245 91.6116 179.591 90.753 180.705 89.6856C181.818 88.6182 182.677 87.4116 183.28 86.0657C183.884 84.7199 184.185 83.3508 184.185 81.9585V81.6801H172.212V73.8834H193.165V100.336H185.578L185.229 93.6536ZM201.615 50.5629H238.231V59.0558H211.709V70.1939H234.959V78.4779H211.709V91.9132H238.44V100.336H201.615V50.5629ZM246.107 50.5629H260.308L267.339 75.5541C267.757 77.132 268.152 78.7099 268.523 80.2878C268.94 81.8657 269.289 83.3044 269.567 84.6038C269.892 86.1353 270.193 87.5972 270.472 88.9895H270.611C270.89 87.5972 271.191 86.1353 271.516 84.6038C271.795 83.3044 272.096 81.8657 272.421 80.2878C272.792 78.7099 273.21 77.132 273.674 75.5541L280.705 50.5629H295.115V100.336H285.717V71.795C285.717 70.774 285.717 69.6834 285.717 68.5232C285.764 67.3165 285.833 66.1795 285.926 65.1121C285.972 63.9055 286.042 62.6989 286.135 61.4922H285.996C285.764 62.6524 285.532 63.7895 285.3 64.9033C285.068 65.8779 284.812 66.8989 284.534 67.9663C284.302 69.0337 284.07 70.0315 283.838 70.9596L275.275 100.336H265.599L257.245 70.9596C256.967 70.0315 256.712 69.0337 256.48 67.9663C256.248 66.8989 256.016 65.8779 255.784 64.9033C255.552 63.7895 255.319 62.6524 255.087 61.4922H254.948C254.995 62.6989 255.064 63.9055 255.157 65.1121C255.203 66.1795 255.25 67.3165 255.296 68.5232C255.343 69.6834 255.366 70.774 255.366 71.795V100.336H246.107V50.5629Z"/><g filter="url(#filter0_d)"><path fill="#03A9F4" fill-rule="evenodd" d="M113.504 17.5253H71.2461L92.3753 44.4169L92.3758 44.4163V17.5253L113.504 17.5253Z" clip-rule="evenodd"/><path fill="#0094D7" fill-rule="evenodd" d="M71.2475 17.5253H113.506L92.3767 44.4169L92.3758 44.4157V17.5253L71.2475 17.5253Z" clip-rule="evenodd"/><path fill="#4FC3F7" d="M81.8105 17.5253H102.94L92.3751 44.4169L81.8105 17.5253Z" opacity=".45"/><path fill="#24A9E5" fill-rule="evenodd" d="M92.3758 6H102.941L113.506 17.525H92.3758V6Z" clip-rule="evenodd" opacity=".9"/><path fill="#25B5F5" fill-rule="evenodd" d="M92.3758 6H81.8107L71.2461 17.525H92.3753H92.3758V6Z" clip-rule="evenodd" opacity=".9"/><path fill="#03A9F4" fill-rule="evenodd" d="M92.3738 6H88.2767L81.8086 17.525H92.3738V6Z" clip-rule="evenodd"/><path fill="#0094D7" fill-rule="evenodd" d="M92.3758 6H96.4713L102.939 17.525H92.3758V6ZM81.8112 17.5233V17.525H81.8103L81.8112 17.5233Z" clip-rule="evenodd"/></g><defs><filter id="filter0_d" width="56.183" height="52.34" x="64.285" y=".779" color-interpolation-filters="sRGB" filterUnits="userSpaceOnUse"><feFlood flood-opacity="0" result="BackgroundImageFix"/><feColorMatrix in="SourceAlpha" type="matrix" values="0 0 0 0 0 0 0 0 0 0 0 0 0 0 0 0 0 0 127 0"/><feOffset dy="1.74"/><feGaussianBlur stdDeviation="3.481"/><feColorMatrix type="matrix" values="0 0 0 0 0 0 0 0 0 0 0 0 0 0 0 0 0 0 0.25 0"/><feBlend in2="BackgroundImageFix" mode="normal" result="effect1_dropShadow"/><feBlend in="SourceGraphic" in2="effect1_dropShadow" mode="normal" result="shape"/></filter></defs></svg>