<?xml version="1.0"?>
<svg xmlns="http://www.w3.org/2000/svg" xmlns:xlink="http://www.w3.org/1999/xlink" xmlns:svgjs="http://svgjs.com/svgjs" version="1.1" width="512" height="512" x="0" y="0" viewBox="0 0 512 512" style="enable-background:new 0 0 512 512" xml:space="preserve" class=""><g><path xmlns="http://www.w3.org/2000/svg" d="m368.683594 396h-292.054688l-66.628906 56.109375v-311.34375c0-13.980469 11.335938-25.3125 25.316406-25.3125h333.367188c13.980468 0 25.316406 11.332031 25.316406 25.3125v229.917969c0 13.980468-11.335938 25.316406-25.316406 25.316406zm0 0" fill="#2e7ee6" data-original="#ff5d5d" style=""/><path xmlns="http://www.w3.org/2000/svg" d="m89.929688 108.378906c-1.859376 1.859375-2.929688 4.441406-2.929688 7.070313 0 2.640625 1.070312 5.210937 2.929688 7.070312 1.859374 1.859375 4.441406 2.929688 7.070312 2.929688 2.640625 0 5.210938-1.070313 7.070312-2.929688 1.859376-1.859375 2.929688-4.429687 2.929688-7.070312 0-2.628907-1.070312-5.210938-2.929688-7.070313-1.859374-1.859375-4.429687-2.929687-7.070312-2.929687-2.628906 0-5.210938 1.070312-7.070312 2.929687zm0 0" fill="#000000" data-original="#000000" style=""/><path xmlns="http://www.w3.org/2000/svg" d="m368.683594 105.453125h-231.683594c-5.523438 0-10 4.476563-10 10s4.476562 10 10 10h231.683594c8.445312 0 15.316406 6.867187 15.316406 15.3125v205.234375h-66.460938c-5.523437 0-10 4.476562-10 10s4.476563 10 10 10h66.460938v4.683594c0 8.445312-6.871094 15.316406-15.316406 15.316406h-292.054688c-2.355468 0-4.636718.832031-6.441406 2.351562l-50.1875 42.261719v-289.847656c0-8.445313 6.871094-15.3125 15.316406-15.3125h21.6875c5.519532 0 10-4.476563 10-10s-4.480468-10-10-10h-21.6875c-19.472656 0-35.316406 15.839844-35.316406 35.3125v311.34375c0 3.890625 2.253906 7.425781 5.78125 9.066406 1.347656.625 2.785156.933594 4.214844.933594 2.316406 0 4.605468-.804687 6.445312-2.351563l63.835938-53.757812h288.40625c19.472656 0 35.316406-15.84375 35.316406-35.316406v-229.917969c0-19.472656-15.84375-35.3125-35.316406-35.3125zm0 0" fill="#000000" data-original="#000000" style=""/><path xmlns="http://www.w3.org/2000/svg" d="m202 69.96875c5.523438 0 10-4.476562 10-10v-49.96875c0-5.523438-4.476562-10-10-10s-10 4.476562-10 10v49.96875c0 5.523438 4.476562 10 10 10zm0 0" fill="#000000" data-original="#000000" style=""/><path xmlns="http://www.w3.org/2000/svg" d="m277.371094 74.027344c2.5625 0 5.117187-.976563 7.070312-2.929688l34.960938-34.957031c3.90625-3.90625 3.90625-10.238281 0-14.144531s-10.238282-3.90625-14.144532 0l-34.957031 34.957031c-3.90625 3.90625-3.90625 10.238281 0 14.144531 1.953125 1.953125 4.511719 2.929688 7.070313 2.929688zm0 0" fill="#000000" data-original="#000000" style=""/><path xmlns="http://www.w3.org/2000/svg" d="m119.558594 71.03125c1.953125 1.953125 4.511718 2.929688 7.070312 2.929688s5.117188-.976563 7.070313-2.929688c3.90625-3.90625 3.90625-10.238281 0-14.144531l-34.960938-34.957031c-3.902343-3.90625-10.234375-3.90625-14.140625 0s-3.90625 10.234374 0 14.140624zm0 0" fill="#000000" data-original="#000000" style=""/><path xmlns="http://www.w3.org/2000/svg" d="m202 442.03125c-5.523438 0-10 4.476562-10 10v49.96875c0 5.523438 4.476562 10 10 10s10-4.476562 10-10v-49.96875c0-5.523438-4.476562-10-10-10zm0 0" fill="#000000" data-original="#000000" style=""/><path xmlns="http://www.w3.org/2000/svg" d="m284.441406 440.902344c-3.90625-3.90625-10.234375-3.90625-14.140625 0s-3.90625 10.238281 0 14.144531l34.957031 34.957031c1.953126 1.953125 4.511719 2.929688 7.070313 2.929688 2.5625 0 5.121094-.976563 7.074219-2.929688 3.902344-3.90625 3.902344-10.238281 0-14.144531zm0 0" fill="#000000" data-original="#000000" style=""/><path xmlns="http://www.w3.org/2000/svg" d="m119.558594 440.96875-34.960938 34.960938c-3.90625 3.90625-3.90625 10.234374 0 14.140624 1.953125 1.953126 4.511719 2.929688 7.070313 2.929688 2.558593 0 5.117187-.976562 7.070312-2.929688l34.960938-34.957031c3.90625-3.90625 3.90625-10.238281 0-14.144531s-10.234375-3.90625-14.140625 0zm0 0" fill="#000000" data-original="#000000" style=""/><path xmlns="http://www.w3.org/2000/svg" d="m293.917969 249.652344c0-26.207032-21.316407-47.523438-47.523438-47.523438h-21.695312c-5.519531 0-10 4.476563-10 10v88c0 5.519532 4.480469 10 10 10h21.695312c26.203125 0 47.523438-21.320312 47.523438-47.527344zm-20 12.949218c0 15.179688-12.347657 27.527344-27.523438 27.527344h-11.695312v-68h11.695312c15.175781 0 27.523438 12.34375 27.523438 27.523438zm0 0" fill="#000000" data-original="#000000" style=""/><path xmlns="http://www.w3.org/2000/svg" d="m119.0625 271.796875-8.457031 25.140625c-1.761719 5.234375 1.050781 10.90625 6.285156 12.667969 5.242187 1.761719 10.90625-1.054688 12.667969-6.289063l6.242187-18.550781h27.78125l6.242188 18.550781c1.402343 4.175782 5.296875 6.8125 9.476562 6.8125 1.058594 0 2.132813-.167968 3.1875-.523437 5.234375-1.761719 8.050781-7.433594 6.289063-12.667969l-29.609375-88c-1.367188-4.070312-5.183594-6.808594-9.476563-6.808594-4.292968 0-8.109375 2.738282-9.476562 6.808594l-21.144532 62.839844c-.003906.007812-.007812.011718-.007812.019531zm30.628906-28.3125 7.160156 21.28125h-14.320312zm0 0" fill="#000000" data-original="#000000" style=""/><path xmlns="http://www.w3.org/2000/svg" d="m270.96875 348.929688c-1.859375 1.859374-2.929688 4.441406-2.929688 7.070312 0 2.640625 1.070313 5.210938 2.929688 7.070312 1.863281 1.859376 4.441406 2.929688 7.070312 2.929688 2.632813 0 5.210938-1.070312 7.070313-2.929688 1.859375-1.859374 2.929687-4.441406 2.929687-7.070312s-1.070312-5.210938-2.929687-7.070312c-1.859375-1.859376-4.4375-2.929688-7.070313-2.929688-2.628906 0-5.210937 1.070312-7.070312 2.929688zm0 0" fill="#000000" data-original="#000000" style=""/></g></svg>
