<svg id="Capa_1" enable-background="new 0 0 512 512" height="512" viewBox="0 0 512 512" width="512" xmlns="http://www.w3.org/2000/svg"><g><path d="m417.569 180.513h-330.151l-17.548-49.004c-1.225-3.421-4.467-5.704-8.101-5.704h-53.164c-4.752 0-8.605 3.853-8.605 8.605v46.103 58.128c0 39.48 32.005 71.484 71.484 71.484h405.335c19.43 0 35.181-15.751 35.181-35.181 0-52.152-42.278-94.431-94.431-94.431z" fill="#b3dafe"/><path d="m290.683 180.513h-203.265l-17.548-49.004c-1.225-3.421-4.467-5.704-8.101-5.704h-53.164c-4.752 0-8.605 3.853-8.605 8.605v46.103 58.128c0 39.48 32.005 71.484 71.484 71.484h46.282l31.318-21.449h72.823z" fill="#0182fc"/><g><path d="m417.569 180.513h-35.042c52.153 0 94.431 42.278 94.431 94.431 0 19.43-15.751 35.181-35.181 35.181h35.042c19.43 0 35.181-15.751 35.181-35.181 0-52.152-42.278-94.431-94.431-94.431z" fill="#8ac9fe"/></g><path d="m149.084 288.677h127.003l-212.964 96.689c-1.204.547-2.511.829-3.833.829h-29.303c-7.088 0-9.923-9.156-4.075-13.161z" fill="#8ac9fe"/><path d="m235.204 288.677-210.271 95.466c1.238 1.236 2.953 2.052 5.054 2.052h29.303c1.322 0 2.629-.283 3.833-.829l212.964-96.689z" fill="#60b7ff"/><path d="m486.803 210.737h-51.45c-12.454 0-22.55 10.096-22.55 22.55 0 12.454 10.096 22.55 22.55 22.55h74.712c-3.536-17.205-11.755-32.699-23.262-45.1z" fill="#26a6fe"/><path d="m486.803 210.737h-35.042c11.506 12.401 19.726 27.895 23.262 45.1h35.042c-3.536-17.205-11.755-32.699-23.262-45.1z" fill="#0593fc"/><g><g fill="#8ac9fe"><path d="m80.15 215.498c-3.037 0-5.657 1.757-6.92 4.305-3.017-1.331-6.348-2.076-9.852-2.076-13.508 0-24.497 10.99-24.497 24.498s10.989 24.497 24.497 24.497c3.504 0 6.835-.745 9.852-2.075 1.263 2.549 3.883 4.305 6.92 4.305 4.267 0 7.726-3.459 7.726-7.726v-38.003c0-4.266-3.459-7.725-7.726-7.725zm-16.772 35.773c-4.987 0-9.045-4.057-9.045-9.045 0-4.987 4.057-9.045 9.045-9.045s9.045 4.058 9.045 9.045c.001 4.987-4.057 9.045-9.045 9.045z"/><path d="m140.764 197.62c-4.267 0-7.726 3.459-7.726 7.726v13.088c-3.355-1.542-7.083-2.409-11.011-2.409-14.592 0-26.464 11.872-26.464 26.464s11.872 26.464 26.464 26.464c4.526 0 8.789-1.144 12.519-3.155 1.407 1.91 3.665 3.155 6.219 3.155 4.267 0 7.726-3.459 7.726-7.726v-55.88c-.001-4.268-3.46-7.727-7.727-7.727zm-18.737 55.881c-6.071 0-11.011-4.94-11.011-11.011s4.94-11.011 11.011-11.011 11.011 4.94 11.011 11.011-4.94 11.011-11.011 11.011z"/><path d="m182.772 235.27c-3.498-1.29-6.812-2.672-8.71-3.484 0 0 .03-.027.083-.07 4.873-4.318 9.957 2.435 9.957 2.435 1.975 2.548 6.394 3.572 9.49 1.161 3.833-2.986 3.985-8.713.351-11.903-.087-.076-2.05-1.801-2.138-1.875-1.011-.849-10.211-8.2-21.748-4.723-6.294 1.896-10.755 6.905-11.64 13.072-1.023 7.126 3.196 13.29 7.711 15.303.219.098 5.433 2.419 11.297 4.581 1.861.686 2.663 1.423 2.883 1.733-.197.455-1.248 1.6-3.44 1.6-4.214 0-6.606-2.278-7.239-2.976-3.026-3.341-8.312-3.421-11.435-.019-2.744 2.99-2.552 7.682.217 10.649 4.63 4.961 11.336 7.799 18.457 7.799 9.332 0 17.19-6.069 18.683-14.431 1.093-6.119-1.598-14.728-12.779-18.852z"/></g></g></g></svg>