<svg xmlns="http://www.w3.org/2000/svg" xmlns:svgjs="http://svgjs.com/svgjs" xmlns:xlink="http://www.w3.org/1999/xlink" style="enable-background:new 0 0 512 512" width="512" height="512" x="0" y="0" version="1.1" viewBox="0 0 511.942 511.942" xml:space="preserve"><g><g xmlns="http://www.w3.org/2000/svg"><path fill="#2e7ee6" d="m125.98 322.323-125.98 125.979 63.64 63.64 125.979-125.979-21.213-21.213 21.616-21.616c76.279 65.561 191.836 62.723 264.761-10.204 76.205-76.204 76.217-199.556 0-275.772-76.204-76.205-199.556-76.216-275.771 0-72.863 72.863-75.833 188.405-10.204 264.762l-21.616 21.616zm74.246-243.952c64.481-64.482 168.855-64.49 233.345 0 64.483 64.484 64.488 168.857 0 233.345-64.48 64.481-168.855 64.491-233.345 0-64.484-64.484-64.489-168.855 0-233.345zm-136.586 391.144-21.214-21.213 83.554-83.553 21.213 21.213z" data-original="#000000"/><path fill="#2e7ee6" d="m448.031 205.067 8.96-10.006-8.96-10.007c-2.376-2.654-59.027-64.993-131.175-64.993-72.149 0-128.802 62.343-131.175 64.994l-8.96 10.006 8.96 10.007c2.376 2.654 59.027 64.993 131.175 64.993 49.232 0 101.395-31.737 131.175-64.994zm-131.175-55.006c42.87 0 81.004 29.157 98.579 45.023-17.517 15.868-55.523 44.978-98.579 44.977-42.874 0-81.012-29.164-98.58-45.022 17.518-15.868 55.524-44.978 98.58-44.978z" data-original="#000000"/><path fill="#2e7ee6" d="m271.856 195.061c-.001 24.869 20.126 45.001 45 45 24.812 0 45-20.187 45-45 .001-24.869-20.126-45.001-45-45-24.811 0-45 20.186-45 45zm60.001 0c-.001 8.273-6.73 15-15 15-8.291 0-15-6.709-15-15 .001-8.272 6.728-15 15-15 8.291 0 15 6.709 15 15z" data-original="#000000"/></g></g></svg>