<svg xmlns="http://www.w3.org/2000/svg" xmlns:svgjs="http://svgjs.com/svgjs" xmlns:xlink="http://www.w3.org/1999/xlink" style="enable-background:new 0 0 512 512" width="512" height="512" x="0" y="0" version="1.1" viewBox="0 0 512 511" xml:space="preserve"><g><path xmlns="http://www.w3.org/2000/svg" fill="#2e7ee6" d="m256 131.46875c13.273438 0 24.066406-10.796875 24.066406-24.066406 0-13.273438-10.796875-24.070313-24.066406-24.070313s-24.066406 10.796875-24.066406 24.070313c0 13.269531 10.796875 24.066406 24.066406 24.066406zm0-33.136719c5 0 9.066406 4.070313 9.066406 9.070313 0 4.996094-4.066406 9.066406-9.066406 9.066406s-9.066406-4.066406-9.066406-9.066406 4.066406-9.070313 9.066406-9.070313zm0 0" data-original="#000000"/><path xmlns="http://www.w3.org/2000/svg" fill="#2e7ee6" d="m504.5 461.261719h-9.066406v-25.632813c0-4.140625-3.359375-7.5-7.5-7.5h-25.632813v-25.632812c0-4.140625-3.355469-7.5-7.5-7.5h-9.0625v-164.128906h9.0625c4.144531 0 7.5-3.359376 7.5-7.5v-25.632813h25.632813c4.144531 0 7.5-3.359375 7.5-7.5v-33.132813c0-4.140624-3.355469-7.5-7.5-7.5h-14.222656l-213.441407-147.769531c-2.566406-1.7773435-5.96875-1.7773435-8.539062 0l-213.4375 147.769531h-14.226563c-4.140625 0-7.5 3.355469-7.5 7.5v33.132813c0 4.140625 3.359375 7.5 7.5 7.5h25.632813v25.632813c0 4.140624 3.359375 7.5 7.5 7.5h9.066406v164.128906h-9.066406c-4.140625 0-7.5 3.355468-7.5 7.5v25.632812h-25.632813c-4.140625 0-7.5 3.359375-7.5 7.5v25.632813h-9.066406c-4.144531 0-7.5 3.355469-7.5 7.5v33.128906c0 4.144531 3.355469 7.5 7.5 7.5h497c4.144531 0 7.5-3.355469 7.5-7.5v-33.128906c0-4.140625-3.355469-7.5-7.5-7.5zm-57.199219-33.132813h-67.832031v-18.132812h67.832031zm-51.269531-33.132812v-164.128906h34.703125v164.128906zm51.269531-179.128906h-67.832031v-18.132813h67.832031zm-75.332031 15h9.0625v164.128906h-9.0625c-4.144531 0-7.5 3.355468-7.5 7.5v25.632812h-59.550781v-25.632812c0-4.144532-3.359375-7.5-7.5-7.5h-9.066407v-164.128906h9.066407c4.140625 0 7.5-3.359376 7.5-7.5v-25.632813h59.550781v25.632813c0 4.140624 3.355469 7.5 7.5 7.5zm-149.882812-33.132813h67.832031v18.132813h-67.832031zm16.5625 33.132813h34.703124v164.128906h-34.703124zm51.269531 179.128906v18.132812h-67.832031v-18.132812zm-258.351563-245.394532h9.070313.007812.003907 121.800781c4.144531 0 7.5-3.359374 7.5-7.5 0-4.144531-3.355469-7.5-7.5-7.5h-97.804688l191.355469-132.480468 191.359375 132.480468h-254.910156c-4.140625 0-7.5 3.355469-7.5 7.5 0 4.140626 3.359375 7.5 7.5 7.5h278.816406.023437 9.144532v18.132813h-448.867188zm33.132813 33.132813h67.835937v18.132813h-67.835937zm51.269531 33.132813v164.128906h-34.703125v-164.128906zm-51.269531 179.128906h67.835937v18.132812h-67.835937zm75.335937-15h-9.066406v-164.128906h9.066406c4.140625 0 7.5-3.359376 7.5-7.5v-25.632813h59.550782v25.632813c0 4.140624 3.355468 7.5 7.5 7.5h9.0625v164.128906h-9.0625c-4.144532 0-7.5 3.355468-7.5 7.5v25.632812h-59.550782v-25.632812c0-4.144532-3.359375-7.5-7.5-7.5zm-108.46875 48.132812h448.867188v18.132813h-448.867188zm465.433594 51.265625h-482v-18.132812h482zm0 0" data-original="#000000"/></g></svg>