<svg xmlns="http://www.w3.org/2000/svg" xmlns:svgjs="http://svgjs.com/svgjs" xmlns:xlink="http://www.w3.org/1999/xlink" style="enable-background:new 0 0 512 512" width="512" height="512" x="0" y="0" version="1.1" viewBox="0 0 512 512" xml:space="preserve"><g><path xmlns="http://www.w3.org/2000/svg" fill="#2e7ee6" d="m421.0625 142.5625c7.695312-9.382812 12.320312-21.375 12.320312-34.425781v-43.375c6.613282-6.851563 10.699219-16.164063 10.699219-26.421875v-28.339844c0-5.523438-4.476562-10-10-10h-59.621093c-27.484376 0-49.839844 22.355469-49.839844 49.839844v58.296875c0 13.050781 4.625 25.039062 12.316406 34.421875-28.511719.855468-55.300781 14.800781-72.394531 37.726562-2.820313-.179687-5.65625-.285156-8.519531-.285156-2.988282 0-5.945313.109375-8.882813.308594-17.128906-22.726563-43.574219-36.453125-72.078125-37.292969 7.695312-9.382813 12.320312-21.375 12.320312-34.425781v-43.371094c6.613282-6.855469 10.699219-16.167969 10.699219-26.421875v-28.34375c0-5.519531-4.476562-10-10-10h-59.621093c-27.484376 0-49.839844 22.359375-49.839844 49.839844v58.296875c0 13.050781 4.625 25.042968 12.316406 34.425781-50.394531 1.476563-90.9375 42.925781-90.9375 93.675781 0 16.40625 13.351562 29.757813 29.761719 29.757813h103.769531c-4.855469 13.621093-7.511719 28.28125-7.511719 43.550781 0 71.683594 58.320313 130 130 130 23.558594 0 45.667969-6.300781 64.742188-17.296875l79.367187 79.367187c6.613282 6.609376 15.296875 9.914063 23.980469 9.914063s17.367187-3.304687 23.976563-9.914063c13.222656-13.222656 13.222656-34.734374 0-47.957031l-79.367188-79.367187c11.003906-19.074219 17.304688-41.1875 17.304688-64.746094 0-60.726562-41.855469-111.851562-98.230469-126.066406 10.207031-10.105469 23.171875-17.035156 37.195312-19.914063.1875.222657.378907.441407.585938.648438l46.355469 46.355469c1.875 1.875 4.417968 2.929687 7.070312 2.929687s5.195312-1.054687 7.070312-2.929687l46.355469-46.355469c.214844-.214844.414063-.4375.605469-.667969 33.605469 6.851562 58.96875 36.636719 58.96875 72.234375 0 5.382813-4.378906 9.761719-9.761719 9.761719h-28.277343c-5.523438 0-10 4.476562-10 10 0 5.523437 4.476562 10 10 10h28.277343c16.410157 0 29.761719-13.351563 29.761719-29.761719 0-50.746094-40.542969-92.195313-90.9375-93.671875zm-322.441406-33.972656v-31.71875h61.382812c2.523438 0 4.988282-.253906 7.375-.722656v32.441406c0 18.957031-15.421875 34.382812-34.378906 34.382812s-34.378906-15.425781-34.378906-34.382812zm61.671875 54.382812-27.292969 27.292969-27.292969-27.292969zm-61.671875-112.679687c0-16.453125 13.382812-29.839844 29.835937-29.839844h49.621094v18.34375c0 9.964844-8.105469 18.074219-18.074219 18.074219h-61.382812zm-68.859375 196.15625c-5.382813 0-9.761719-4.378907-9.761719-9.761719 0-35.597656 25.363281-65.382812 58.972656-72.234375.1875.230469.386719.453125.601563.667969l46.355469 46.355468c1.875 1.875 4.417968 2.929688 7.070312 2.929688s5.195312-1.054688 7.070312-2.929688l46.355469-46.355468c.210938-.210938.40625-.433594.597657-.65625 13.90625 2.832031 26.695312 9.621094 36.839843 19.5625-34.789062 8.886718-64.003906 31.84375-81.214843 62.421875zm404.179687 221.808593c5.421875 5.421876 5.421875 14.246094 0 19.667969-5.421875 5.425781-14.246094 5.425781-19.667968 0l-76.738282-76.738281c7.234375-5.839844 13.828125-12.433594 19.667969-19.667969zm-67.921875-158.257812c0 60.652344-49.34375 110-110 110-60.652343 0-110-49.347656-110-110s49.347657-110 110-110c60.65625 0 110 49.347656 110 110zm-21.398437-201.863281v-31.722657h61.382812c2.523438 0 4.988282-.25 7.378906-.722656v32.445313c0 18.957031-15.425781 34.378906-34.382812 34.378906s-34.378906-15.421875-34.378906-34.378906zm0-58.296875c0-16.453125 13.382812-29.839844 29.835937-29.839844h49.621094v18.34375c0 9.964844-8.105469 18.070312-18.074219 18.070312h-61.382812zm34.378906 139.96875-27.292969-27.292969h54.585938zm0 0" data-original="#000000"/><path xmlns="http://www.w3.org/2000/svg" fill="#2e7ee6" d="m168.019531 310c0 48.523438 39.476563 88 88 88 48.523438 0 88-39.476562 88-88s-39.476562-88-88-88c-48.523437 0-88 39.476562-88 88zm156 0c0 37.496094-30.503906 68-68 68-37.492187 0-68-30.503906-68-68s30.507813-68 68-68c37.496094 0 68 30.503906 68 68zm0 0" data-original="#000000"/><path xmlns="http://www.w3.org/2000/svg" fill="#2e7ee6" d="m246.019531 275.003906c0 5.523438 4.476563 10 10 10 13.785157 0 24.996094 11.214844 24.996094 24.996094 0 5.523438 4.476563 10 10 10s10-4.476562 10-10c0-24.8125-20.183594-44.996094-44.996094-44.996094-5.523437 0-10 4.476563-10 10zm0 0" data-original="#000000"/><path xmlns="http://www.w3.org/2000/svg" fill="#2e7ee6" d="m409.890625 248.921875c-1.859375 1.867187-2.929687 4.449219-2.929687 7.078125s1.070312 5.199219 2.929687 7.070312c1.859375 1.859376 4.4375 2.929688 7.070313 2.929688 2.628906 0 5.210937-1.070312 7.070312-2.929688 1.859375-1.871093 2.929688-4.441406 2.929688-7.070312s-1.070313-5.210938-2.929688-7.078125c-1.859375-1.863281-4.441406-2.921875-7.070312-2.921875-2.632813 0-5.210938 1.058594-7.070313 2.921875zm0 0" data-original="#000000"/></g></svg>