<?xml version="1.0"?>
<svg xmlns="http://www.w3.org/2000/svg" xmlns:xlink="http://www.w3.org/1999/xlink" xmlns:svgjs="http://svgjs.com/svgjs" version="1.1" width="512" height="512" x="0" y="0" viewBox="0 0 682 682.66669" style="enable-background:new 0 0 512 512" xml:space="preserve"><g><path xmlns="http://www.w3.org/2000/svg" d="m262.058594 640-9.929688-4.511719c-87.65625-39.84375-162.832031-98.925781-223.425781-175.621093-20.660156-26.140626-32.035156-59.015626-32.035156-92.570313v-367.296875l34.796875 14.929688c42.421875 18.203124 76.769531 26.679687 108.078125 26.679687 54.8125 0 109.179687-33.328125 109.722656-33.664063l12.792969-7.929687 13.019531 7.585937c.535156.308594 56.929687 32.78125 111.535156 32.78125 39.460938 0 77.285157-13.65625 105.828125-25.554687l34.558594-14.398437v370.394531c0 31.671875-9.78125 61.957031-28.28125 87.605469-56.503906 78.285156-132.746094 137.957031-226.601562 177.347656zm-215.480469-565.644531v292.941406c0 22.371094 7.558594 44.257813 21.289063 61.628906 53.316406 67.476563 118.878906 120.078125 194.992187 156.488281 80.65625-35.75 146.351563-88.261718 195.382813-156.199218 12.324218-17.082032 18.84375-37.277344 18.84375-58.390625v-296.796875c-26.707032 8.976562-57.5625 16.265625-90.472657 16.265625-51.242187 0-100.941406-21.347657-123.800781-32.730469-22.507812 11.859375-71.40625 33.960938-123.269531 33.960938-33.890625.003906-66.128907-7.949219-92.964844-17.167969zm370.160156 155.855469-35.292969-35.292969-146.75 146.757812-81.246093-81.246093-35.296875 35.292968 116.542968 116.539063zm0 0" fill="#2e7ee6" data-original="#000000" style=""/></g></svg>
