<?xml version="1.0"?>
<svg xmlns="http://www.w3.org/2000/svg" xmlns:xlink="http://www.w3.org/1999/xlink" xmlns:svgjs="http://svgjs.com/svgjs" version="1.1" width="512" height="512" x="0" y="0" viewBox="0 0 512 512" style="enable-background:new 0 0 512 512" xml:space="preserve" class=""><g><path xmlns="http://www.w3.org/2000/svg" d="m52.01 324.526c2.807 8.379-1.71 17.447-10.089 20.254-1.686.564-3.4.833-5.084.833-6.69 0-12.927-4.229-15.169-10.922-14.387-42.943-16.719-89.031-6.745-133.28 10.254-45.496 33.184-87.053 66.31-120.178 46.681-46.682 108.747-72.391 174.766-72.391 56.963 0 110.974 19.155 154.709 54.392l-6.357-44.996c-1.236-8.75 4.855-16.845 13.604-18.081 8.753-1.234 16.845 4.855 18.081 13.604l11.848 83.859c.594 4.202-.506 8.467-3.058 11.858-2.551 3.391-6.345 5.629-10.547 6.223l-83.859 11.847c-.759.107-1.513.159-2.258.159-7.845 0-14.694-5.773-15.823-13.764-1.236-8.75 4.855-16.845 13.604-18.081l46.167-6.522c-38.321-31.415-85.903-48.499-136.112-48.499-57.471 0-111.501 22.38-152.14 63.019-58.111 58.113-77.979 142.667-51.848 220.666zm438.321-147.218c-2.808-8.378-11.875-12.894-20.254-10.087-8.379 2.808-12.895 11.875-10.087 20.254 26.134 77.995 6.266 162.548-51.85 220.665-78.733 78.733-203.802 83.57-288.233 14.517l46.149-6.52c8.75-1.236 14.84-9.331 13.604-18.081s-9.336-14.839-18.081-13.604l-83.858 11.847c-8.75 1.236-14.84 9.331-13.604 18.081l11.847 83.859c1.129 7.991 7.978 13.764 15.823 13.764.745 0 1.5-.052 2.258-.159 8.75-1.236 14.84-9.332 13.604-18.081l-6.357-44.996c43.734 35.237 97.745 54.392 154.708 54.392 66.018 0 128.085-25.709 174.767-72.391 33.126-33.126 56.056-74.683 66.312-120.179 9.974-44.252 7.64-90.339-6.748-133.281zm-158.458 133.141c0-38.304-34.037-69.466-75.874-69.466-24.192 0-43.874-16.807-43.874-37.466s19.683-37.466 43.873-37.467c12.41 0 34.698 9.81 39.747 17.493 4.853 7.384 14.773 9.438 22.158 4.584 7.385-4.853 9.437-14.774 4.584-22.158-9.894-15.055-32.248-25.687-50.741-29.905l-.462-19.356c-.211-8.834-7.543-15.799-16.378-15.613-8.834.211-15.824 7.544-15.613 16.378l.435 18.187c-34.042 6.839-59.602 34.668-59.603 67.858 0 38.304 34.037 69.466 75.874 69.466 24.192 0 43.874 16.807 43.874 37.466s-19.682 37.466-43.874 37.466c-16.688 0-25.198-5.489-39.115-18.618-6.427-6.064-16.554-5.77-22.618.659-6.064 6.428-5.769 16.554.659 22.618 12.336 11.638 25.255 22.314 45.385 25.989l.404 16.733c.21 8.703 7.331 15.614 15.988 15.614.131 0 .262-.001.394-.005 8.834-.213 15.822-7.547 15.609-16.381l-.392-16.225c34.021-6.854 59.56-34.674 59.56-67.851z" fill="#2e7ee6" data-original="#000000" style=""/></g></svg>
