<?xml version="1.0"?>
<svg xmlns="http://www.w3.org/2000/svg" xmlns:xlink="http://www.w3.org/1999/xlink" xmlns:svgjs="http://svgjs.com/svgjs" version="1.1" width="512" height="512" x="0" y="0" viewBox="0 0 512 512" style="enable-background:new 0 0 512 512" xml:space="preserve" class=""><g><path xmlns="http://www.w3.org/2000/svg" d="m497 32.134h-49.267v-17.134c0-8.284-6.716-15-15-15h-64.267c-8.284 0-15 6.716-15 15v17.133h-113.533c-79.27 0-143.533 64.137-143.533 143.533 0 79.145 64.389 143.534 143.533 143.534h32.133c9.339 0 17.133 7.551 17.133 17.133 0 9.447-7.686 17.134-17.133 17.134h-113.533v-17.134c0-8.284-6.716-15-15-15h-64.266c-8.284 0-15 6.716-15 15v17.134h-49.267c-8.284 0-15 6.716-15 15v96.399c0 8.284 6.716 15 15 15h49.267v17.134c0 8.284 6.716 15 15 15h64.267c8.284 0 15-6.716 15-15v-17.134h113.533c79.282 0 143.533-64.146 143.533-143.533 0-79.145-64.389-143.533-143.533-143.533h-32.133c-9.356 0-17.133-7.564-17.133-17.134 0-9.447 7.686-17.133 17.133-17.133h113.534v17.134c0 8.284 6.716 15 15 15h64.267c8.284 0 15-6.716 15-15v-17.134h49.265c8.284 0 15-6.716 15-15v-96.399c0-8.284-6.716-15-15-15zm-432.733 417.732h-34.267v-66.399h34.267zm64.266 32.134h-34.266v-130.667h34.267v130.667zm224.933-353.467h-113.533c-25.989 0-47.133 21.144-47.133 47.133 0 25.822 20.868 47.134 47.133 47.134h32.133c62.603 0 113.533 50.931 113.533 113.533 0 62.708-50.729 113.533-113.533 113.533h-113.533v-66.399h113.533c25.989 0 47.133-21.145 47.133-47.134 0-25.919-20.955-47.133-47.133-47.133h-32.133c-62.603 0-113.533-50.932-113.533-113.534 0-62.711 50.739-113.533 113.533-113.533h113.533zm64.267 32.134h-34.267v-130.667h34.267zm64.267-32.134h-34.267v-66.399h34.267z" fill="#2e7ee6" data-original="#000000" style="" class=""/></g></svg>
