<svg xmlns="http://www.w3.org/2000/svg" xmlns:svgjs="http://svgjs.com/svgjs" xmlns:xlink="http://www.w3.org/1999/xlink" style="enable-background:new 0 0 512 512" width="512" height="512" x="0" y="0" version="1.1" viewBox="0 0 32 32" xml:space="preserve"><g><linearGradient xmlns="http://www.w3.org/2000/svg" id="linear-gradient" x1="16" x2="16" y1=".38" y2="41.63" gradientUnits="userSpaceOnUse"><stop offset=".427" stop-color="#009fff" stop-opacity="1"/><stop offset="1" stop-color="#ec2f4b" stop-opacity="1"/></linearGradient><linearGradient xmlns="http://www.w3.org/2000/svg" xmlns:xlink="http://www.w3.org/1999/xlink" id="linear-gradient-2" x1="12" x2="12" y1=".38" y2="41.63" xlink:href="#linear-gradient"/><g xmlns="http://www.w3.org/2000/svg" id="market"><path fill="url(#linear-gradient)" d="m29.86 11.33a1 1 0 0 0 -.08-.39l-3.61-8.34a1 1 0 0 0 -.91-.6h-18.52a1 1 0 0 0 -.91.6l-3.61 8.34a1 1 0 0 0 -.08.39 3.69 3.69 0 0 0 1.86 3.2v14.47a1 1 0 0 0 1 1h22a1 1 0 0 0 1-1v-14.47a3.69 3.69 0 0 0 1.86-3.2zm-5.26-7.33 3.25 7.52a1.57 1.57 0 1 1 -3.14-.19 1.07 1.07 0 0 0 0-.25l-1.86-7.08zm-1.89 7.45a1.62 1.62 0 0 1 -1.57 1.55 1.65 1.65 0 0 1 -1.57-1.75l-.63-7.25h1.84l.44 1.71zm-7.64-7.45h1.86l.64 7.33a1.58 1.58 0 1 1 -3.15.09zm-2.64 7.33a1.57 1.57 0 1 1 -3.14.12l1.49-5.74.44-1.71h1.84zm-5.03-7.33h1.75l-1.83 7.08a1.07 1.07 0 0 0 0 .25 1.63 1.63 0 0 1 -1.61 1.67 1.62 1.62 0 0 1 -1.56-1.48zm13.6 24v-7a1 1 0 0 0 -1-1h-5a1 1 0 0 0 0 2h4v6h-6v-4a1 1 0 0 0 -2 0v4h-5v-13a3.45 3.45 0 0 0 2.28-1.11 3.49 3.49 0 0 0 5.15 0 3.48 3.48 0 0 0 5.14 0 3.48 3.48 0 0 0 5.15 0 3.45 3.45 0 0 0 2.28 1.11v13z" data-original="url(#linear-gradient)"/><circle cx="12" cy="21" r="1" fill="url(#linear-gradient-2)" data-original="url(#linear-gradient-2)"/></g></g></svg>