<svg xmlns="http://www.w3.org/2000/svg" xmlns:svgjs="http://svgjs.com/svgjs" xmlns:xlink="http://www.w3.org/1999/xlink" style="enable-background:new 0 0 512 512" width="512" height="512" x="0" y="0" version="1.1" viewBox="0 0 512.005 512.005" xml:space="preserve"><g><path xmlns="http://www.w3.org/2000/svg" fill="#2e7ee6" d="m507.505 116.364c-3.798-4.66-9.491-7.364-15.502-7.364h-362.257l-1.493-13.644c-.016-.142-.033-.284-.051-.426-7.101-54.118-53.616-94.93-108.199-94.93-11.046 0-20 8.954-20 20s8.954 20 20 20c34.508 0 63.926 25.751 68.513 59.934l28.754 262.769c2.646 24.178 15.816 44.82 34.659 57.577-26.139 38.445 2.253 91.998 49.074 91.72 39.778.551 69.171-40.626 55.861-78h86.277c-13.304 37.378 16.077 78.55 55.862 78 78.267-3.238 78.252-114.769-.001-118h-202.207c-20.444 0-37.539-15.326-39.763-35.649l-.585-5.351h244.65c37.783 0 70.737-26.86 78.356-63.867l10.521-51.1c1.212-5.889-.289-12.01-4.087-16.669-3.798-4.66-9.491-7.364-15.502-7.364h-89.958l5.2-65h81.839l-.405 1.967c-2.227 10.819 4.737 21.395 15.556 23.622 1.361.28 2.717.415 4.054.415 9.292-.001 17.621-6.513 19.568-15.971l5.353-26c1.212-5.888-.289-12.01-4.087-16.669zm-108.502 317.636c10.477 0 19 8.523 19 19-1.044 25.206-36.96 25.199-38 0 0-10.477 8.523-19 19-19zm-198 0c10.477 0 19 8.523 19 19-1.044 25.206-36.96 25.199-38 0 0-10.477 8.523-19 19-19zm-66.88-285h78.255l5.2 65h-76.342zm17.947 164-6.456-59h75.165l4.72 59zm180.308 0h-66.752l-4.72-59h76.192zm7.92-99h-82.592l-5.2-65h92.992zm105.55 40-5.573 27.066c-3.81 18.504-20.286 31.934-39.178 31.934h-28.591l4.72-59z" data-original="#000000"/></g></svg>