<?xml version="1.0"?>
<svg xmlns="http://www.w3.org/2000/svg" xmlns:xlink="http://www.w3.org/1999/xlink" xmlns:svgjs="http://svgjs.com/svgjs" version="1.1" width="512" height="512" x="0" y="0" viewBox="0 0 61 53" style="enable-background:new 0 0 512 512" xml:space="preserve"><g><g xmlns="http://www.w3.org/2000/svg" id="Page-1" fill="none" fill-rule="evenodd"><g id="022---Running" fill="rgb(0,0,0)" fill-rule="nonzero" transform="translate(-1)"><path id="Shape" d="m44 12.5c0 3.0375661 2.4624339 5.5 5.5 5.5s5.5-2.4624339 5.5-5.5c0-3.03756612-2.4624339-5.5-5.5-5.5-3.0361953.0033068-5.4966932 2.46380465-5.5 5.5zm9 0c0 1.9329966-1.5670034 3.5-3.5 3.5s-3.5-1.5670034-3.5-3.5 1.5670034-3.5 3.5-3.5 3.5 1.5670034 3.5 3.5z" fill="#2e7ee6" data-original="#000000" style=""/><path id="Shape" d="m26 4c0 2.209139 1.790861 4 4 4s4-1.790861 4-4-1.790861-4-4-4-4 1.790861-4 4zm6 0c0 1.1045695-.8954305 2-2 2s-2-.8954305-2-2 .8954305-2 2-2 2 .8954305 2 2z" fill="#2e7ee6" data-original="#000000" style=""/><path id="Shape" d="m43.594 32.1c.8875798 1.4136918 2.5514228 2.1382238 4.191 1.825l10-2c1.4163379-.2650247 2.5806746-1.271337 3.0480381-2.6343566.4673634-1.3630196.1655149-2.8720696-.7901887-3.9504396-.9557036-1.0783699-2.4175427-1.5593801-3.8268494-1.2592038l-7.269 1.453-6.54-10.634c-.7254456-1.1853624-2.01728-1.9057866-3.407-1.9h-9c-.3108747.0033693-.6202967.0429699-.922.118l-4.677-7.6c-.5756054-.94570675-1.6038999-1.521491-2.711-1.518h-6.56c-.8457901.00191048-1.656737.33714021-2.257.933l-3.65 3.65c-.83246895.80067128-1.16675492 1.988989-.87381946 3.1062481s1.1672687 1.9886876 2.28549646 2.2779034c1.1182277.2892159 2.3054264-.0490227 3.103323-.8841515l2.707-2.716h2.208l-3.528 5.285-4.925 2.472-4.317-2.7c-.71843886-.4486034-1.58568109-.5933743-2.4108773-.402454-.82519621.1909204-1.54072462.701887-1.9891227 1.420454-.44773811.7162209-.59213876 1.5811454-.401347 2.40397.19079175.8228246.70109886 1.5359392 1.418347 1.98203l5.839 3.655c.9423943.5820918 2.1187989.6354272 3.11.141l5.863-2.936 4.1 2.046c.3076994.6681777.8027252 1.2326807 1.425 1.625l2.894 5.8-2.512 1.256-6.1-3.811c-1.8733499-1.1708437-4.3411563-.6013499-5.512 1.272s-.6013499 4.3411563 1.272 5.512l8 5c1.1856503.7269459 2.6606977.7971143 3.91.186l8.211-4.102 7.02 3.509 4.4 8.808c.6741721 1.3592914 2.0627172 2.2168538 3.58 2.211h-21c-.5522847 0-1 .4477153-1 1s.4477153 1 1 1h33c.5522847 0 1-.4477153 1-1s-.4477153-1-1-1h-11.993c.618826-.0021151 1.2288782-.1465021 1.783-.422.9488315-.4745844 1.6702645-1.3066641 2.0055822-2.3131797s.2570506-2.105013-.2175822-3.0538203l-5-10c-.3882212-.773012-1.0152051-1.4003467-1.788-1.789l-5.948-2.973 1.944-2.916zm-26.732-12.424-6.3 3.154c-.3738531.1855324-.81654068.1674327-1.174-.048l-5.83-3.651c-.26722167-.165451-.45739698-.4306709-.52835712-.7368507-.07096014-.3061799-.01684104-.6280173.15035712-.8941493.34811777-.5568951 1.08134041-.7268918 1.639-.38l4.79 3c.29593504.1851605.6670069.202596.979.046l5.67-2.84c.1552609-.077745.2876025-.1945779.384-.339l4.68-7.01c.1776656-.29544948.2065388-.65710431.078-.977-.1523085-.37886494-.5196662-.62706887-.928-.627h-4.442c-.2660316-.0002096-.5211817.10559311-.709.294l-2.994 3.005c-.4700089.4585751-1.2199911.4585751-1.69 0-.4617742-.4632451-.4617742-1.2127549 0-1.676l3.65-3.65c.2245758-.22168862.5274368-.34599454.843-.346h6.56c.4115402-.00132601.7938322.21257548 1.008.564l4.611 7.5c-.044.04-.094.07-.137.113l-1.6 1.6-1.712-2.783c-.1791259-.2897315-.4934144-.4683559-.834-.474-.3431607-.0172964-.6685186.1536219-.849.446l-2.5 3.76c-.1589087.2389259-.2075241.5346027-.1334818.8118306.0740422.2772278.2636068.5092913.5204818.6371694l2.079 1.033c-.5673389.579112-.943266 1.3184005-1.077 2.118l-3.31-1.651c-.281568-.1403067-.6127466-.1399363-.894.001zm5.108-2.787 1.009-1.517 1.144 1.85-.493.492zm3.4 9.075c.8111167-.0735815 1.5795952-.3963424 2.2-.924l2.083 4.16-2.134 1.067zm5.732 1.669-2.027-4.054 2.582-2.579h3.87zm8.882-2.508-3.434 5.157c-.1590483.2386699-.2079623.5341422-.1343122.8113342.07365.2771919.2627735.5094175.5193122.6376658l6.961 3.48c.38599.1943119.6991202.5077928.893.894l5 10c.2374745.4744545.276694 1.0238266.1090265 1.5272041-.1676674.5033774-.5284802.9195048-1.0030265 1.1567959-.9890547.4747445-2.1763853.0791152-2.683-.894l-4.553-9.106c-.0965712-.1937869-.2534294-.350996-.447-.448l-7.764-3.882c-.2819051-.1400157-.6130949-.1400157-.895 0l-8.653 4.33c-.6253245.3086099-1.365218.2750127-1.96-.089l-8-5c-.6073515-.3788802-.9664373-1.052998-.9419932-1.7684199.0244441-.715422.4287044-1.3634583 1.0605-1.7.6317956-.3365418 1.3951417-.3104603 2.0024932.0684199l6.573 4.109c.2954371.1844178.6655424.2018434.977.046l7.783-3.892c.1552609-.077745.2876025-.1945779.384-.339l6.412-9.614c.2071186-.351971.2009492-.7900017-.016-1.136-.1821499-.2945166-.5037073-.4738322-.85-.474h-6.081c-.2651948.0000566-.5195073.1054506-.707.293l-4.122 4.121c-.791167.755814-2.036833.755814-2.828 0-.2018431-.2041603-.3573666-.4493827-.456-.719l-.006-.02c-.2710076-.7265414-.0901096-1.5444979.462-2.089l.969-.969.012-.011 4.02-4.02c.3736083-.3765437.8825609-.5876167 1.413-.586h9c.6939893-.0011455 1.338344.3596931 1.7.952l6.905 11.22c.2192198.3567014.6374433.5390756 1.048.457l7.949-1.59c.7005978-.140584 1.4229776.1032755 1.8950258.639719.4720483.5364435.6220496 1.2839725.3935001 1.961-.2285496.6770275-.8009281 1.180697-1.5015259 1.321281l-10 2c-.8216484.1610323-1.6573484-.2022983-2.1-.913l-3.626-5.892c-.1786472-.2904973-.4930211-.4699242-.834-.476-.3387185-.0071821-.6571219.1610952-.842.445z" fill="#2e7ee6" data-original="#000000" style=""/><path id="Shape" d="m23 51h-2c-.5522847 0-1 .4477153-1 1s.4477153 1 1 1h2c.5522847 0 1-.4477153 1-1s-.4477153-1-1-1z" fill="#2e7ee6" data-original="#000000" style=""/></g></g></g></svg>
