<svg xmlns="http://www.w3.org/2000/svg" xmlns:svgjs="http://svgjs.com/svgjs" xmlns:xlink="http://www.w3.org/1999/xlink" style="enable-background:new 0 0 512 512" width="512" height="512" x="0" y="0" version="1.1" viewBox="0 0 512 512" xml:space="preserve"><g><g xmlns="http://www.w3.org/2000/svg"><path fill="#2e7ee6" d="m468.998 144h-134.72c-11.682-81.307-81.791-144-166.278-144-92.635 0-168 75.364-168 168 0 31.758 8.809 62.387 25.549 89.082l-24.618 66.61c-2.03 5.493-.678 11.666 3.463 15.807 2.864 2.864 6.699 4.394 10.609 4.394 1.744 0 3.503-.305 5.198-.931l70.181-25.938c23.85 12.433 50.534 18.975 77.619 18.975 4.374 0 8.709-.169 13-.499v77.498c0 23.711 19.291 43.002 43.002 43.002h177.282l87.884 53.794c2.4 1.469 5.113 2.207 7.831 2.207 2.524 0 5.053-.637 7.333-1.915 4.734-2.653 7.667-7.658 7.667-13.085v-310c-.001-23.71-19.292-43.001-43.002-43.001zm-369.897 143.594c-2.309-1.333-4.899-2.011-7.503-2.011-1.754 0-3.516.308-5.2.93l-46.029 17.012 15.954-43.165c1.698-4.596 1.045-9.731-1.75-13.756-16.075-23.148-24.572-50.329-24.572-78.604 0-76.093 61.906-138 138-138 76.093 0 137.999 61.906 137.999 138 0 76.093-61.906 137.999-137.999 137.999-24.231 0-48.056-6.365-68.9-18.405zm382.898 182.637-68.657-42.026c-2.357-1.443-5.067-2.207-7.831-2.207h-181.508c-7.169 0-13.002-5.833-13.002-13.002v-82.585c34.772-9.214 65.153-29.324 87.256-56.441l26.529 26.529-38.894 38.893c-5.858 5.857-5.858 15.355 0 21.213 2.929 2.929 6.768 4.394 10.606 4.394s7.678-1.465 10.606-4.394l38.894-38.893 38.894 38.893c2.929 2.929 6.768 4.394 10.606 4.394s7.678-1.464 10.606-4.394c5.858-5.858 5.858-15.355 0-21.213l-38.892-38.892 38.894-38.893c5.858-5.857 5.858-15.355 0-21.213-5.857-5.858-15.355-5.858-21.213 0l-38.894 38.893-30.654-30.654c12.253-22.302 19.584-47.669 20.536-74.633h133.117c7.169 0 13.002 5.833 13.002 13.001v283.23z" data-original="#000000"/><path fill="#2e7ee6" d="m224.894 115.894-64.894 64.893-28.894-28.894c-5.857-5.858-15.355-5.858-21.213 0s-5.858 15.355 0 21.213l39.5 39.5c2.929 2.93 6.768 4.394 10.607 4.394s7.678-1.464 10.606-4.394l75.5-75.5c5.858-5.857 5.858-15.355 0-21.213-5.857-5.857-15.354-5.858-21.212.001z" data-original="#000000"/></g></g></svg>