<svg xmlns="http://www.w3.org/2000/svg" width="26" height="26" fill="none" viewBox="0 0 26 26"><path fill="#0E3DFF" d="M12.6231 0C5.66048 0 0 5.66048 0 12.6231C0 19.5858 5.66048 25.2463 12.6231 25.2463C19.5858 25.2463 25.2463 19.5858 25.2463 12.6231C25.2463 5.66048 19.5858 0 12.6231 0ZM12.6231 23.4923C6.64376 23.4923 1.75395 18.6025 1.75395 12.6231C1.75395 6.64376 6.64376 1.75395 12.6231 1.75395C18.6025 1.75395 23.4923 6.64376 23.4923 12.6231C23.4923 18.6025 18.6025 23.4923 12.6231 23.4923Z"/><path fill="#0E3DFF" d="M16.8222 6.1987L10.1519 9.33456C9.80641 9.49401 9.51409 9.78633 9.35464 10.1318L6.19221 16.8287C5.89988 17.4665 6.00618 18.2106 6.53768 18.7421C6.85658 19.061 7.28178 19.247 7.70698 19.247C7.94616 19.247 8.18533 19.1939 8.42451 19.0876L15.0948 15.9517C15.4403 15.7923 15.7326 15.5 15.8921 15.1545L19.0279 8.48416C19.3203 7.84635 19.214 7.10225 18.6825 6.57075C18.2041 6.03925 17.46 5.90638 16.8222 6.1987ZM14.3507 14.3307L7.89301 17.3602L10.896 10.9291L17.3803 7.8995L14.3507 14.3307Z"/></svg>