<svg xmlns="http://www.w3.org/2000/svg" width="34" height="31" fill="none" viewBox="0 0 34 31"><path fill="#0E3DFF" d="M29.1947 16.644C29.1947 16.5657 29.1556 16.4874 29.1164 16.4482C29.1164 16.4482 29.1164 16.4482 29.1164 16.4091L25.2396 9.39941C25.0829 9.16445 24.848 9.00781 24.5347 9.00781H8.71405C8.67489 9.00781 8.59656 9.00781 8.5574 9.00781H8.51825H8.47908C8.43992 9.00781 8.43993 9.04697 8.40077 9.04697C8.40077 9.04697 8.3616 9.04698 8.3616 9.08614C8.32244 9.1253 8.24413 9.16445 8.20497 9.20361C8.16581 9.24277 8.12664 9.28193 8.08748 9.32109C8.08748 9.32109 8.08748 9.32109 8.08748 9.36025L4.21064 16.4091C4.21064 16.4091 4.21064 16.4091 4.21064 16.4482C4.17148 16.5265 4.13232 16.5657 4.13232 16.644C4.13232 16.6832 4.13232 16.7223 4.13232 16.7615C4.13232 16.8007 4.13232 16.8007 4.13232 16.8398V16.879C4.13232 16.9573 4.17148 17.0356 4.17148 17.0748C4.17148 17.0748 4.17148 17.0748 4.17148 17.1139C4.21064 17.1923 4.2498 17.2314 4.28896 17.2706C4.28896 17.2706 4.28896 17.2706 4.28896 17.3097L16.1153 30.2326C16.1545 30.2717 16.1936 30.3109 16.2328 30.35C16.2328 30.35 16.2719 30.35 16.2719 30.3892C16.3111 30.4284 16.3503 30.4283 16.4286 30.4675H16.4677C16.5461 30.4675 16.5852 30.5067 16.6635 30.5067C16.7027 30.5067 16.781 30.5067 16.8202 30.5067H16.8593C16.8985 30.5067 16.8985 30.5067 16.9377 30.4675C16.9768 30.4675 16.9768 30.4284 17.016 30.4284C17.0551 30.4284 17.0551 30.3892 17.0943 30.3892L17.1335 30.35C17.1726 30.3109 17.1726 30.3109 17.2118 30.2717L29.0381 17.3489C29.0381 17.3489 29.0381 17.3489 29.0381 17.3097C29.0773 17.2706 29.1164 17.1923 29.1556 17.1531C29.1556 17.1531 29.1556 17.1531 29.1556 17.1139C29.1947 17.0356 29.1947 16.9965 29.1947 16.9181V16.879C29.1947 16.8398 29.1947 16.8398 29.1947 16.8007C29.2339 16.7615 29.2339 16.7223 29.1947 16.644ZM23.4382 10.5742L21.2844 15.9391L17.9167 10.5742H23.4382ZM19.5222 16.0566H13.6874L16.5852 11.3966L19.5222 16.0566ZM15.2929 10.5742L11.9643 15.9L9.84969 10.5742H15.2929ZM8.59657 11.6315L10.3588 16.0566H6.16864L8.59657 11.6315ZM6.5994 17.623H10.9853L14.3531 26.0816L6.5994 17.623ZM16.6244 27.6088L12.6692 17.7013L12.7084 17.623H20.5012L20.5404 17.7013L16.6244 27.6088ZM18.9348 26.0816L22.3026 17.623H26.6493L18.9348 26.0816ZM22.9291 16.0566L24.6913 11.6707L27.1193 16.0566H22.9291Z"/><path fill="#0E3DFF" d="M16.6245 6.97048C17.0553 6.97048 17.4077 6.61804 17.4077 6.18728V0.783201C17.4077 0.35244 17.0553 0 16.6245 0C16.1937 0 15.8413 0.35244 15.8413 0.783201V6.18728C15.8413 6.61804 16.1937 6.97048 16.6245 6.97048Z"/><path fill="#0E3DFF" d="M32.9935 3.99791C32.6802 3.68463 32.2103 3.68463 31.897 3.95875L27.9027 7.75727C27.5894 8.07055 27.5894 8.54047 27.8635 8.85376C28.0202 9.0104 28.216 9.08872 28.4118 9.08872C28.6076 9.08872 28.8034 9.0104 28.96 8.85376L32.9543 5.05523C33.2676 4.82027 33.2676 4.31119 32.9935 3.99791Z"/><path fill="#0E3DFF" d="M4.79802 9.11955C4.99382 9.11955 5.18962 9.04124 5.34626 8.8846C5.65954 8.57132 5.62038 8.06224 5.3071 7.78812L1.31277 3.9896C0.999493 3.67632 0.490417 3.71547 0.216297 4.02875C-0.096983 4.34203 -0.0578266 4.85112 0.255454 5.12524L4.24978 8.92376C4.40642 9.0804 4.60222 9.11955 4.79802 9.11955Z"/></svg>