<svg width="171" height="176" viewBox="0 0 171 176" fill="none" xmlns="http://www.w3.org/2000/svg">
<path d="M0 128.332H19.3363V134.977H7.30926V147.935H16.7449V154.579H7.30926V174.846H0V128.332Z" fill="black"/>
<path d="M23.8382 128.332H31.1474V168.201H43.1745V174.846H23.8382V128.332Z" fill="black"/>
<path d="M47.6763 128.332H54.9856V174.846H47.6763V128.332Z" fill="black"/>
<path d="M67.9019 151.058L59.8617 128.332H67.5697L72.4868 143.35H72.6197L77.6697 128.332H84.5803L76.5401 151.058L84.979 174.846H77.2711L71.9552 158.633H71.8223L66.3736 174.846H59.463L67.9019 151.058Z" fill="black"/>
<path d="M98.7752 175.51C95.2314 175.51 92.5291 174.514 90.6686 172.52C88.8081 170.483 87.8778 167.581 87.8778 163.816V139.363C87.8778 135.597 88.8081 132.718 90.6686 130.725C92.5291 128.687 95.2314 127.668 98.7752 127.668C102.319 127.668 105.021 128.687 106.882 130.725C108.742 132.718 109.673 135.597 109.673 139.363V143.35H102.762V138.898C102.762 135.841 101.5 134.313 98.9746 134.313C96.4496 134.313 95.1871 135.841 95.1871 138.898V164.347C95.1871 167.359 96.4496 168.866 98.9746 168.866C101.5 168.866 102.762 167.359 102.762 164.347V155.244H99.1075V148.599H109.673V163.816C109.673 167.581 108.742 170.483 106.882 172.52C105.021 174.514 102.319 175.51 98.7752 175.51Z" fill="black"/>
<path d="M115.362 128.332H135.297V134.977H122.672V147.27H132.705V153.915H122.672V168.201H135.297V174.846H115.362V128.332Z" fill="black"/>
<path d="M140.498 128.332H150.931L155.582 161.623H155.715L160.366 128.332H170.798V174.846H163.888V139.629H163.755L158.439 174.846H152.326L147.01 139.629H146.877V174.846H140.498V128.332Z" fill="black"/>
<g clip-path="url(#clip0_2932:5939)">
<path d="M85.2088 -0.000976562H71.6099L85.2088 21.3854V-0.000976562Z" fill="#D22229"/>
<path d="M85.2076 21.3854L71.6087 -0.000976562L66.7852 21.3854H85.2076Z" fill="#FB4F60"/>
<path d="M66.7855 21.3854L71.6091 -0.000976562L47.0264 21.3854H66.7855Z" fill="#D22229"/>
<path d="M99.5624 -0.000976562H85.208V21.3854L99.5624 -0.000976562Z" fill="#D22229"/>
<path d="M105.258 21.3854L99.5624 -0.000976562L85.208 21.3854H105.258Z" fill="#E63441"/>
<path d="M128.504 0H115.37L125.017 21.3864L128.504 0Z" fill="#E63441"/>
<path d="M138.384 21.3864L128.504 0L125.018 21.3864H138.384Z" fill="#D22229"/>
<path d="M115.371 0H99.5635L125.018 21.3864L115.371 0Z" fill="#D22229"/>
<path d="M125.018 21.3864L99.5635 0L105.259 21.3864H125.018Z" fill="#D22229"/>
<path d="M71.6091 -0.000976562H55.8017H54.93L47.0264 21.3854L71.6091 -0.000976562Z" fill="#D22229"/>
<path d="M47.0268 21.3854L41.5059 -0.000976562L32.5562 21.3854H47.0268Z" fill="#D22229"/>
<path d="M85.2076 22.0841V21.3867H66.7852L85.5563 101.527L85.2076 21.3867V22.0841Z" fill="#D22229"/>
<path d="M125.017 21.3867L85.5571 101.527L138.384 21.3867H125.017Z" fill="#D22229"/>
<path d="M105.258 21.3867L85.5567 101.121L105.258 21.3867H85.208L85.5567 101.527L125.017 21.3867H105.258Z" fill="#E63441"/>
<path d="M85.5571 101.527L149.135 21.3867H138.384L85.5571 101.527Z" fill="#A70B0C"/>
<path d="M138.383 21.3864H149.134L128.503 0L138.383 21.3864Z" fill="#A70B0C"/>
<path d="M32.5562 21.3867L85.5571 101.527L47.0268 21.3867H32.5562Z" fill="#D22229"/>
<path d="M21.2817 21.3867L85.557 101.527L32.5561 21.3867H21.2817Z" fill="#A70B0C"/>
<path d="M41.5053 -0.00195312L21.2812 21.3844H32.5556L41.5053 -0.00195312Z" fill="#A70B0C"/>
<path d="M47.0264 21.3867L85.5567 101.527L66.7855 21.3867H47.0264Z" fill="#E63441"/>
<path d="M54.93 -0.000976562H41.5054L47.0263 21.3854L54.93 -0.000976562Z" fill="#FB4F60"/>
<path d="M85.208 21.3867H105.258L85.5567 101.527L85.208 21.3867Z" fill="#D22229"/>
<path opacity="0.14" d="M41.5053 -0.00195312L21.2812 21.3844H149.134L128.504 -0.00195312H41.5053Z" fill="white"/>
<path opacity="0.23" d="M99.5619 -0.000976562H85.6143V101.468L149.134 21.3854L128.503 -0.000976562H115.369H99.5619Z" fill="#020202"/>
</g>
<defs>
<clipPath id="clip0_2932:5939">
<rect width="127.853" height="101.527" fill="white" transform="translate(21.2812)"/>
</clipPath>
</defs>
</svg>
