<svg xmlns="http://www.w3.org/2000/svg" width="469" height="712" fill="none" viewBox="0 0 469 712"><path fill="#020203" fill-rule="evenodd" d="M430.9 358.5C389 329 389 266.9 430.9 237.5C453.9 221.4 469 194.7 469 164.5C469 115.3 429.2 75.5 380 75.5C361.5 75.5 344.2 81.2 330 90.9C274.6 128 199.3 108.5 168.7 49.3C154.1 20.1 123.9 0 89 0C39.8 0 0 39.8 0 89C0 138.2 39.8 178 89 178C107.5 178 124.8 172.3 139 162.6C194.4 125.5 269.7 145 300.3 204.2C307 217.6 316.9 229 329 237.5C370.7 266.8 370.9 328.6 329.5 358.2C274.1 394.9 199.1 375.4 168.6 316.4C154.1 287.1 123.9 267 89 267C39.8 267 0 306.8 0 356C0 386.2 15 412.9 38.1 429C80 458.5 80 520.6 38.1 550C15 566.1 0 592.8 0 623C0 672.2 39.8 712 89 712C138.2 712 178 672.2 178 623C178 592.8 163 566.1 139.9 550C98.2 520.7 98 459 139.4 429.4C194.8 392.7 269.8 412.2 300.3 471.2C314.9 500.4 345.1 520.5 380 520.5C429.2 520.5 469 480.7 469 431.5C469 401.3 454 374.6 430.9 358.5Z" clip-rule="evenodd"/></svg>