<svg width="164" height="248" viewBox="0 0 164 248" fill="none" xmlns="http://www.w3.org/2000/svg">
<path fill-rule="evenodd" clip-rule="evenodd" d="M150.089 124.871C135.494 114.595 135.494 92.965 150.089 82.7246C158.1 77.1167 163.36 67.8167 163.36 57.2976C163.36 40.1606 149.497 26.2976 132.36 26.2976C125.916 26.2976 119.89 28.283 114.944 31.6617C95.6472 44.5841 69.4191 37.792 58.7607 17.1718C53.6753 7.001 43.1562 -0.00012207 31 -0.00012207C13.8629 -0.00012207 0 13.8628 0 30.9999C0 48.137 13.8629 61.9999 31 61.9999C37.4438 61.9999 43.4697 60.0145 48.4157 56.6358C67.7124 43.7134 93.9404 50.5055 104.599 71.1257C106.933 75.7931 110.381 79.7639 114.596 82.7246C129.12 92.9302 129.19 114.456 114.77 124.766C95.473 137.549 69.3494 130.757 58.7258 110.207C53.6753 100.001 43.1562 92.9999 31 92.9999C13.8629 92.9999 0 106.863 0 124C0 134.519 5.22472 143.819 13.2708 149.427C27.8652 159.702 27.8652 181.332 13.2708 191.573C5.22472 197.181 0 206.481 0 217C0 234.137 13.8629 248 31 248C48.1371 248 62 234.137 62 217C62 206.481 56.7753 197.181 48.7292 191.573C34.2045 181.367 34.1348 159.876 48.5551 149.566C67.8517 136.783 93.9753 143.575 104.599 164.126C109.684 174.297 120.203 181.298 132.36 181.298C149.497 181.298 163.36 167.435 163.36 150.298C163.36 139.779 158.135 130.479 150.089 124.871Z" fill="white"/>
</svg>
