<svg xmlns="http://www.w3.org/2000/svg" width="26" height="27" fill="none" viewBox="0 0 26 27"><mask id="path-1-outside-1_3071_5154" width="26" height="27" x="0" y="0" fill="#000" maskUnits="userSpaceOnUse"><rect width="26" height="27" fill="#fff"/><path d="M14.1165 26.0106L16.332 23.7951C16.3854 23.7417 16.4654 23.715 16.5188 23.7417L19.6151 24.2222C19.6952 24.2222 19.7486 24.2489 19.8287 24.2489C20.496 24.2489 21.0565 23.7684 21.1633 23.1011L21.6437 20.0048C21.6437 19.9248 21.6971 19.8714 21.7505 19.8447L24.5532 18.43C24.8735 18.2698 25.1137 17.9762 25.2205 17.6292C25.3272 17.2822 25.3006 16.9085 25.1404 16.5882L23.7257 13.7856C23.699 13.7322 23.699 13.6521 23.7257 13.572L25.1671 10.8227C25.3272 10.5024 25.3539 10.1287 25.2472 9.78172C25.1404 9.43473 24.9002 9.16781 24.5799 8.98096L21.7772 7.56628C21.7238 7.53958 21.6704 7.45951 21.6704 7.40612L21.1633 4.30983C21.0565 3.64253 20.496 3.16207 19.8287 3.16207C19.7486 3.16207 19.6952 3.16207 19.6151 3.18876L16.5188 3.66922C16.4388 3.66922 16.3854 3.66922 16.332 3.61583L14.1165 1.40038C13.8496 1.13346 13.5293 1 13.1556 1C12.7819 1 12.4616 1.13346 12.1947 1.40038L9.97925 3.61583C9.92586 3.66922 9.87248 3.66922 9.81909 3.66922H9.7924L6.69611 3.18876C6.61603 3.18876 6.56265 3.16207 6.48257 3.16207C5.81527 3.16207 5.25473 3.64253 5.14796 4.30983L4.6675 7.40612C4.6675 7.4862 4.61412 7.53958 4.56074 7.56628L1.73137 8.98096C1.41106 9.14111 1.17083 9.43473 1.06406 9.78172C0.957293 10.1287 0.983985 10.5024 1.14414 10.8227L2.55882 13.6254C2.58552 13.6788 2.58552 13.7589 2.55882 13.8389L1.14414 16.5882C0.983985 16.9085 0.957293 17.2822 1.06406 17.6292C1.17083 17.9762 1.41106 18.2431 1.73137 18.43L4.53404 19.8447C4.58743 19.8714 4.64081 19.9514 4.64081 20.0048L5.14796 23.1011C5.25473 23.7684 5.81527 24.2489 6.48257 24.2489C6.56265 24.2489 6.61603 24.2489 6.69611 24.2222L9.7924 23.7417C9.87248 23.7417 9.92586 23.7417 9.97925 23.7951L12.1947 26.0106C12.4616 26.2775 12.7819 26.4109 13.1556 26.4109C13.5293 26.4109 13.8496 26.2775 14.1165 26.0106ZM10.78 22.9944C10.5398 22.7541 10.1661 22.594 9.81909 22.594C9.73902 22.594 9.68563 22.594 9.60556 22.6207L6.50926 23.1011C6.3758 23.1278 6.26904 23.0477 6.24234 22.9143L5.76188 19.818C5.68181 19.3909 5.41489 19.0172 5.04119 18.8304L2.26521 17.4157C2.18513 17.389 2.15844 17.3089 2.15844 17.2822C2.15844 17.2555 2.13175 17.1755 2.18513 17.1221L3.59982 14.3194C3.78666 13.9457 3.78666 13.4652 3.59982 13.0916L2.15844 10.2889C2.13175 10.2088 2.13175 10.1554 2.13175 10.1287C2.13175 10.102 2.15844 10.0486 2.23852 9.99526L5.04119 8.58058C5.41489 8.39373 5.7085 8.02004 5.76188 7.59297L6.24234 4.49668C6.26904 4.38991 6.3758 4.28314 6.50926 4.30983L9.60556 4.79029C9.68563 4.79029 9.73902 4.81698 9.81909 4.81698C10.1661 4.81698 10.5131 4.68352 10.78 4.4166L12.9955 2.20115C13.0488 2.14776 13.1289 2.14776 13.1556 2.14776C13.1823 2.14776 13.2624 2.14776 13.3158 2.20115L15.5312 4.4166C15.8248 4.71021 16.2786 4.87037 16.7057 4.79029L19.802 4.30983C19.9354 4.28314 20.0422 4.36321 20.0689 4.49668L20.5493 7.59297C20.6294 8.02004 20.8963 8.39373 21.27 8.58058L24.0727 9.99526C24.1528 10.022 24.1795 10.102 24.1795 10.1287C24.1795 10.1554 24.2062 10.2355 24.1528 10.2889L22.7381 13.0916C22.5513 13.4652 22.5513 13.9457 22.7381 14.3194L24.1528 17.1221C24.1795 17.2022 24.1795 17.2555 24.1795 17.2822C24.1795 17.3089 24.1528 17.3623 24.0727 17.4157L21.27 18.8304C20.8963 19.0172 20.6027 19.3909 20.5493 19.818L20.0689 22.9143C20.0422 23.021 19.9354 23.1278 19.802 23.1011L16.7057 22.6207C16.2786 22.5406 15.8248 22.7007 15.5312 22.9944L13.3158 25.2098C13.2624 25.2632 13.1823 25.2632 13.1556 25.2632C13.1289 25.2632 13.0488 25.2632 12.9955 25.2098L10.78 22.9944ZM18.414 16.7751L19.0813 12.531C19.0813 12.5043 19.0813 12.4776 19.0813 12.4509C19.0813 11.4099 18.2271 10.5558 17.1861 10.5558H14.944V9.03434C14.944 8.1802 14.6771 7.53958 14.1699 7.16589C13.3692 6.57866 12.3549 6.87228 12.2214 6.92566C11.9812 7.00574 11.821 7.21928 11.821 7.45951V9.48811C11.821 10.8761 10.1661 11.3566 10.086 11.3833C10.0593 11.3833 10.0326 11.4099 10.0059 11.4099C9.84579 11.2765 9.63225 11.2231 9.39202 11.2231H7.89726C7.31003 11.2231 6.82957 11.7036 6.82957 12.2908V17.3623C6.82957 17.9495 7.31003 18.43 7.89726 18.43H9.39202C9.63225 18.43 9.87248 18.3499 10.0326 18.2165C10.3529 18.4834 10.7533 18.6168 11.2071 18.6168H16.1718C17.4531 18.5901 18.2805 17.9228 18.414 16.7751ZM9.36533 17.2822H8.03072V12.3442H9.36533V17.2822ZM10.5131 16.695V12.4509C10.9135 12.3175 12.9955 11.5434 12.9955 9.48811V7.93997C13.1823 7.93997 13.3958 7.96666 13.5293 8.07343C13.7962 8.26027 13.8496 8.68735 13.8496 9.00765V11.1163C13.8496 11.4366 14.1165 11.6769 14.4101 11.6769H17.2128C17.6132 11.6769 17.9602 11.9972 17.9869 12.3976L17.3196 16.5882C17.3196 16.5882 17.3196 16.5882 17.3196 16.6149C17.2929 16.8552 17.2128 17.4424 16.2519 17.4424H11.2605C10.8601 17.4691 10.5131 17.1221 10.5131 16.695Z"/></mask><path fill="#0E3DFF" d="M14.1165 26.0106L16.332 23.7951C16.3854 23.7417 16.4654 23.715 16.5188 23.7417L19.6151 24.2222C19.6952 24.2222 19.7486 24.2489 19.8287 24.2489C20.496 24.2489 21.0565 23.7684 21.1633 23.1011L21.6437 20.0048C21.6437 19.9248 21.6971 19.8714 21.7505 19.8447L24.5532 18.43C24.8735 18.2698 25.1137 17.9762 25.2205 17.6292C25.3272 17.2822 25.3006 16.9085 25.1404 16.5882L23.7257 13.7856C23.699 13.7322 23.699 13.6521 23.7257 13.572L25.1671 10.8227C25.3272 10.5024 25.3539 10.1287 25.2472 9.78172C25.1404 9.43473 24.9002 9.16781 24.5799 8.98096L21.7772 7.56628C21.7238 7.53958 21.6704 7.45951 21.6704 7.40612L21.1633 4.30983C21.0565 3.64253 20.496 3.16207 19.8287 3.16207C19.7486 3.16207 19.6952 3.16207 19.6151 3.18876L16.5188 3.66922C16.4388 3.66922 16.3854 3.66922 16.332 3.61583L14.1165 1.40038C13.8496 1.13346 13.5293 1 13.1556 1C12.7819 1 12.4616 1.13346 12.1947 1.40038L9.97925 3.61583C9.92586 3.66922 9.87248 3.66922 9.81909 3.66922H9.7924L6.69611 3.18876C6.61603 3.18876 6.56265 3.16207 6.48257 3.16207C5.81527 3.16207 5.25473 3.64253 5.14796 4.30983L4.6675 7.40612C4.6675 7.4862 4.61412 7.53958 4.56074 7.56628L1.73137 8.98096C1.41106 9.14111 1.17083 9.43473 1.06406 9.78172C0.957293 10.1287 0.983985 10.5024 1.14414 10.8227L2.55882 13.6254C2.58552 13.6788 2.58552 13.7589 2.55882 13.8389L1.14414 16.5882C0.983985 16.9085 0.957293 17.2822 1.06406 17.6292C1.17083 17.9762 1.41106 18.2431 1.73137 18.43L4.53404 19.8447C4.58743 19.8714 4.64081 19.9514 4.64081 20.0048L5.14796 23.1011C5.25473 23.7684 5.81527 24.2489 6.48257 24.2489C6.56265 24.2489 6.61603 24.2489 6.69611 24.2222L9.7924 23.7417C9.87248 23.7417 9.92586 23.7417 9.97925 23.7951L12.1947 26.0106C12.4616 26.2775 12.7819 26.4109 13.1556 26.4109C13.5293 26.4109 13.8496 26.2775 14.1165 26.0106ZM10.78 22.9944C10.5398 22.7541 10.1661 22.594 9.81909 22.594C9.73902 22.594 9.68563 22.594 9.60556 22.6207L6.50926 23.1011C6.3758 23.1278 6.26904 23.0477 6.24234 22.9143L5.76188 19.818C5.68181 19.3909 5.41489 19.0172 5.04119 18.8304L2.26521 17.4157C2.18513 17.389 2.15844 17.3089 2.15844 17.2822C2.15844 17.2555 2.13175 17.1755 2.18513 17.1221L3.59982 14.3194C3.78666 13.9457 3.78666 13.4652 3.59982 13.0916L2.15844 10.2889C2.13175 10.2088 2.13175 10.1554 2.13175 10.1287C2.13175 10.102 2.15844 10.0486 2.23852 9.99526L5.04119 8.58058C5.41489 8.39373 5.7085 8.02004 5.76188 7.59297L6.24234 4.49668C6.26904 4.38991 6.3758 4.28314 6.50926 4.30983L9.60556 4.79029C9.68563 4.79029 9.73902 4.81698 9.81909 4.81698C10.1661 4.81698 10.5131 4.68352 10.78 4.4166L12.9955 2.20115C13.0488 2.14776 13.1289 2.14776 13.1556 2.14776C13.1823 2.14776 13.2624 2.14776 13.3158 2.20115L15.5312 4.4166C15.8248 4.71021 16.2786 4.87037 16.7057 4.79029L19.802 4.30983C19.9354 4.28314 20.0422 4.36321 20.0689 4.49668L20.5493 7.59297C20.6294 8.02004 20.8963 8.39373 21.27 8.58058L24.0727 9.99526C24.1528 10.022 24.1795 10.102 24.1795 10.1287C24.1795 10.1554 24.2062 10.2355 24.1528 10.2889L22.7381 13.0916C22.5513 13.4652 22.5513 13.9457 22.7381 14.3194L24.1528 17.1221C24.1795 17.2022 24.1795 17.2555 24.1795 17.2822C24.1795 17.3089 24.1528 17.3623 24.0727 17.4157L21.27 18.8304C20.8963 19.0172 20.6027 19.3909 20.5493 19.818L20.0689 22.9143C20.0422 23.021 19.9354 23.1278 19.802 23.1011L16.7057 22.6207C16.2786 22.5406 15.8248 22.7007 15.5312 22.9944L13.3158 25.2098C13.2624 25.2632 13.1823 25.2632 13.1556 25.2632C13.1289 25.2632 13.0488 25.2632 12.9955 25.2098L10.78 22.9944ZM18.414 16.7751L19.0813 12.531C19.0813 12.5043 19.0813 12.4776 19.0813 12.4509C19.0813 11.4099 18.2271 10.5558 17.1861 10.5558H14.944V9.03434C14.944 8.1802 14.6771 7.53958 14.1699 7.16589C13.3692 6.57866 12.3549 6.87228 12.2214 6.92566C11.9812 7.00574 11.821 7.21928 11.821 7.45951V9.48811C11.821 10.8761 10.1661 11.3566 10.086 11.3833C10.0593 11.3833 10.0326 11.4099 10.0059 11.4099C9.84579 11.2765 9.63225 11.2231 9.39202 11.2231H7.89726C7.31003 11.2231 6.82957 11.7036 6.82957 12.2908V17.3623C6.82957 17.9495 7.31003 18.43 7.89726 18.43H9.39202C9.63225 18.43 9.87248 18.3499 10.0326 18.2165C10.3529 18.4834 10.7533 18.6168 11.2071 18.6168H16.1718C17.4531 18.5901 18.2805 17.9228 18.414 16.7751ZM9.36533 17.2822H8.03072V12.3442H9.36533V17.2822ZM10.5131 16.695V12.4509C10.9135 12.3175 12.9955 11.5434 12.9955 9.48811V7.93997C13.1823 7.93997 13.3958 7.96666 13.5293 8.07343C13.7962 8.26027 13.8496 8.68735 13.8496 9.00765V11.1163C13.8496 11.4366 14.1165 11.6769 14.4101 11.6769H17.2128C17.6132 11.6769 17.9602 11.9972 17.9869 12.3976L17.3196 16.5882C17.3196 16.5882 17.3196 16.5882 17.3196 16.6149C17.2929 16.8552 17.2128 17.4424 16.2519 17.4424H11.2605C10.8601 17.4691 10.5131 17.1221 10.5131 16.695Z"/><path stroke="#0E3DFF" stroke-width=".486" d="M14.1165 26.0106L16.332 23.7951C16.3854 23.7417 16.4654 23.715 16.5188 23.7417L19.6151 24.2222C19.6952 24.2222 19.7486 24.2489 19.8287 24.2489C20.496 24.2489 21.0565 23.7684 21.1633 23.1011L21.6437 20.0048C21.6437 19.9248 21.6971 19.8714 21.7505 19.8447L24.5532 18.43C24.8735 18.2698 25.1137 17.9762 25.2205 17.6292C25.3272 17.2822 25.3006 16.9085 25.1404 16.5882L23.7257 13.7856C23.699 13.7322 23.699 13.6521 23.7257 13.572L25.1671 10.8227C25.3272 10.5024 25.3539 10.1287 25.2472 9.78172C25.1404 9.43473 24.9002 9.16781 24.5799 8.98096L21.7772 7.56628C21.7238 7.53958 21.6704 7.45951 21.6704 7.40612L21.1633 4.30983C21.0565 3.64253 20.496 3.16207 19.8287 3.16207C19.7486 3.16207 19.6952 3.16207 19.6151 3.18876L16.5188 3.66922C16.4388 3.66922 16.3854 3.66922 16.332 3.61583L14.1165 1.40038C13.8496 1.13346 13.5293 1 13.1556 1C12.7819 1 12.4616 1.13346 12.1947 1.40038L9.97925 3.61583C9.92586 3.66922 9.87248 3.66922 9.81909 3.66922H9.7924L6.69611 3.18876C6.61603 3.18876 6.56265 3.16207 6.48257 3.16207C5.81527 3.16207 5.25473 3.64253 5.14796 4.30983L4.6675 7.40612C4.6675 7.4862 4.61412 7.53958 4.56074 7.56628L1.73137 8.98096C1.41106 9.14111 1.17083 9.43473 1.06406 9.78172C0.957293 10.1287 0.983985 10.5024 1.14414 10.8227L2.55882 13.6254C2.58552 13.6788 2.58552 13.7589 2.55882 13.8389L1.14414 16.5882C0.983985 16.9085 0.957293 17.2822 1.06406 17.6292C1.17083 17.9762 1.41106 18.2431 1.73137 18.43L4.53404 19.8447C4.58743 19.8714 4.64081 19.9514 4.64081 20.0048L5.14796 23.1011C5.25473 23.7684 5.81527 24.2489 6.48257 24.2489C6.56265 24.2489 6.61603 24.2489 6.69611 24.2222L9.7924 23.7417C9.87248 23.7417 9.92586 23.7417 9.97925 23.7951L12.1947 26.0106C12.4616 26.2775 12.7819 26.4109 13.1556 26.4109C13.5293 26.4109 13.8496 26.2775 14.1165 26.0106ZM10.78 22.9944C10.5398 22.7541 10.1661 22.594 9.81909 22.594C9.73902 22.594 9.68563 22.594 9.60556 22.6207L6.50926 23.1011C6.3758 23.1278 6.26904 23.0477 6.24234 22.9143L5.76188 19.818C5.68181 19.3909 5.41489 19.0172 5.04119 18.8304L2.26521 17.4157C2.18513 17.389 2.15844 17.3089 2.15844 17.2822C2.15844 17.2555 2.13175 17.1755 2.18513 17.1221L3.59982 14.3194C3.78666 13.9457 3.78666 13.4652 3.59982 13.0916L2.15844 10.2889C2.13175 10.2088 2.13175 10.1554 2.13175 10.1287C2.13175 10.102 2.15844 10.0486 2.23852 9.99526L5.04119 8.58058C5.41489 8.39373 5.7085 8.02004 5.76188 7.59297L6.24234 4.49668C6.26904 4.38991 6.3758 4.28314 6.50926 4.30983L9.60556 4.79029C9.68563 4.79029 9.73902 4.81698 9.81909 4.81698C10.1661 4.81698 10.5131 4.68352 10.78 4.4166L12.9955 2.20115C13.0488 2.14776 13.1289 2.14776 13.1556 2.14776C13.1823 2.14776 13.2624 2.14776 13.3158 2.20115L15.5312 4.4166C15.8248 4.71021 16.2786 4.87037 16.7057 4.79029L19.802 4.30983C19.9354 4.28314 20.0422 4.36321 20.0689 4.49668L20.5493 7.59297C20.6294 8.02004 20.8963 8.39373 21.27 8.58058L24.0727 9.99526C24.1528 10.022 24.1795 10.102 24.1795 10.1287C24.1795 10.1554 24.2062 10.2355 24.1528 10.2889L22.7381 13.0916C22.5513 13.4652 22.5513 13.9457 22.7381 14.3194L24.1528 17.1221C24.1795 17.2022 24.1795 17.2555 24.1795 17.2822C24.1795 17.3089 24.1528 17.3623 24.0727 17.4157L21.27 18.8304C20.8963 19.0172 20.6027 19.3909 20.5493 19.818L20.0689 22.9143C20.0422 23.021 19.9354 23.1278 19.802 23.1011L16.7057 22.6207C16.2786 22.5406 15.8248 22.7007 15.5312 22.9944L13.3158 25.2098C13.2624 25.2632 13.1823 25.2632 13.1556 25.2632C13.1289 25.2632 13.0488 25.2632 12.9955 25.2098L10.78 22.9944ZM18.414 16.7751L19.0813 12.531C19.0813 12.5043 19.0813 12.4776 19.0813 12.4509C19.0813 11.4099 18.2271 10.5558 17.1861 10.5558H14.944V9.03434C14.944 8.1802 14.6771 7.53958 14.1699 7.16589C13.3692 6.57866 12.3549 6.87228 12.2214 6.92566C11.9812 7.00574 11.821 7.21928 11.821 7.45951V9.48811C11.821 10.8761 10.1661 11.3566 10.086 11.3833C10.0593 11.3833 10.0326 11.4099 10.0059 11.4099C9.84579 11.2765 9.63225 11.2231 9.39202 11.2231H7.89726C7.31003 11.2231 6.82957 11.7036 6.82957 12.2908V17.3623C6.82957 17.9495 7.31003 18.43 7.89726 18.43H9.39202C9.63225 18.43 9.87248 18.3499 10.0326 18.2165C10.3529 18.4834 10.7533 18.6168 11.2071 18.6168H16.1718C17.4531 18.5901 18.2805 17.9228 18.414 16.7751ZM9.36533 17.2822H8.03072V12.3442H9.36533V17.2822ZM10.5131 16.695V12.4509C10.9135 12.3175 12.9955 11.5434 12.9955 9.48811V7.93997C13.1823 7.93997 13.3958 7.96666 13.5293 8.07343C13.7962 8.26027 13.8496 8.68735 13.8496 9.00765V11.1163C13.8496 11.4366 14.1165 11.6769 14.4101 11.6769H17.2128C17.6132 11.6769 17.9602 11.9972 17.9869 12.3976L17.3196 16.5882C17.3196 16.5882 17.3196 16.5882 17.3196 16.6149C17.2929 16.8552 17.2128 17.4424 16.2519 17.4424H11.2605C10.8601 17.4691 10.5131 17.1221 10.5131 16.695Z" mask="url(#path-1-outside-1_3071_5154)"/></svg>