<svg width="40" height="40" viewBox="0 0 40 40" fill="none" xmlns="http://www.w3.org/2000/svg">
<circle cx="20" cy="20" r="20" fill="#F26522"/>
<path d="M7.65081 25H10.8181V20.2952L14.2313 14.0069H11.2178L9.35744 17.7122L7.49706 14.0069H4.06844L7.65081 20.2952V25ZM19.5078 25.1845C22.3522 25.1845 24.4124 23.7085 24.6277 20.8641H21.4912C21.3374 22.0787 20.5533 22.663 19.4463 22.663C17.9396 22.663 17.0939 21.5406 17.0939 19.5572V19.4342C17.0939 17.4355 17.9857 16.3285 19.4002 16.3285C20.5072 16.3285 21.1222 16.9435 21.2452 18.0659H24.4893C24.2279 15.16 22.2446 13.8377 19.3848 13.8377C16.1714 13.8377 13.7729 16.0671 13.7729 19.4496V19.5726C13.7729 22.9397 15.6641 25.1845 19.5078 25.1845ZM24.7682 25H27.7049L28.2891 22.9551H31.933L32.5172 25H35.8536L32.3635 14.0069H28.2891L24.7682 25ZM30.1187 16.5591L31.318 20.7872H28.9041L30.1187 16.5591Z" fill="white"/>
</svg>
